<svg width="189" height="30" viewBox="0 0 189 30" fill="none" xmlns="http://www.w3.org/2000/svg">
<g clip-path="url(#clip0_235_155)">
<path fill-rule="evenodd" clip-rule="evenodd" d="M5.50792 0.03238C3.66855 0.0479899 1.85751 0.0633107 0.127121 0.0631662C-0.0480574 1.30892 -0.00122768 5.21718 0.0302812 7.84456C0.0398206 8.62693 0.0479146 9.2957 0.0482037 9.7468L0.0343282 29.8031C0.406365 29.8065 0.93768 29.8159 1.55601 29.8269C3.71682 29.8651 6.94056 29.9222 8.14599 29.8109C11.381 29.8291 14.6157 29.8213 17.8504 29.7875C18.7789 28.8938 20.3102 27.4018 21.0554 26.4053C21.1372 24.7806 21.1158 22.7014 21.0961 20.7843C21.0878 19.986 21.0797 19.2159 21.0797 18.5184L21.073 3.74407C20.4189 2.93091 18.2459 0.702016 17.4059 0.0848466C13.6702 -0.0368528 9.52198 -0.00173054 5.50792 0.03238ZM6.83331 7.03111C9.1907 6.97359 11.8091 7.03819 14.1876 7.04484L14.1732 23.1949C11.8137 23.2651 9.20602 23.2066 6.82811 23.2014L6.83331 7.03111Z" fill="#404040"/>
<path d="M0.0175781 29.8429V23.2711L0.150265 23.2685C2.36856 23.2464 4.58699 23.2477 6.80516 23.2711C6.79319 24.7176 6.74434 29.8235 6.74434 29.8235C6.74434 29.8235 1.68966 29.8585 0.0175781 29.8429Z" fill="#717171"/>
<path d="M79.4185 0.0440209L86.2929 0.0249023L86.3103 29.6654C85.7614 29.9607 80.4276 29.7968 79.4002 29.7707L79.4116 18.6474L73.3528 18.6487C73.2482 22.1882 73.3203 26.226 73.3657 29.7864C71.0531 29.8189 68.7401 29.8202 66.4274 29.789C66.4187 20.0237 66.2595 9.76158 66.4563 0.0375184L73.3357 0.0440209L73.3088 11.7028C75.312 11.7495 77.3985 11.7194 79.4083 11.7172L79.4185 0.0440209Z" fill="#404040"/>
<path d="M102.72 0.0251465L109.608 0.0428359C109.605 6.28654 109.503 12.869 109.638 19.0856C110.119 19.8284 111.767 21.6873 112.444 22.4847C113.35 21.3347 114.334 20.2173 115.157 19.0076L115.164 0.0454401L122.052 0.0415338L122.053 7.52258L122.043 21.5923C121.629 22.2011 121.071 22.8684 120.595 23.433C118.822 25.5312 117.135 27.7595 115.298 29.7979C113.375 29.8096 111.338 29.8539 109.428 29.7667C107.968 27.9885 103.801 23.165 102.728 21.4817C102.595 19.1129 102.688 15.7776 102.688 13.3191C102.672 8.8878 102.682 4.45628 102.72 0.0251465Z" fill="#404040"/>
<path d="M28.9557 0.075125C33.5929 0.0229619 38.3216 0.072392 42.9661 0.0738229L42.9496 7.01841C39.5344 7.09269 35.7165 7.06862 32.3014 6.99278L32.2885 11.6998C34.7329 11.7684 37.3637 11.7308 39.8228 11.7409L39.835 18.6406L32.3026 18.6471L32.3051 23.1103L34.7346 23.096C37.4795 23.0843 40.2244 23.1129 42.9684 23.1844L42.9584 29.7809C38.4198 29.8954 33.0675 29.8707 28.5221 29.7848C27.4752 28.7481 26.4401 27.7009 25.4172 26.6407C25.3919 25.6443 25.4042 24.6179 25.4094 23.6176C25.4438 16.9535 25.3463 10.277 25.4284 3.61428C26.0611 2.7452 28.1042 0.751034 28.9557 0.075125Z" fill="#404040"/>
<path d="M130.797 0.0988996C135.008 -0.101037 140.457 0.0698939 144.808 0.0577962L144.812 6.99119C141.288 6.93786 137.698 6.95555 134.17 6.93994L134.148 11.7043C136.601 11.7682 139.228 11.7259 141.693 11.7309L141.71 18.6392C139.217 18.6717 136.662 18.6418 134.166 18.6405C134.143 20.1416 134.167 21.7065 134.171 23.2129L136.596 23.209C139.334 23.2025 142.071 23.2142 144.81 23.2454L144.816 29.8042C140.158 29.8107 135.075 29.9173 130.45 29.7743C129.557 28.9092 127.935 27.4054 127.254 26.4597C127.172 20.7933 127.295 15.097 127.241 9.42712C127.222 7.50255 127.226 5.54767 127.278 3.62557C127.84 2.87304 130.041 0.683881 130.797 0.0988996Z" fill="#404040"/>
<path d="M181.556 0.0490465L188.522 0.0454102C188.551 2.38169 188.548 4.71823 188.514 7.05439C188.513 9.33252 188.595 12.2016 188.488 14.4312C186.818 16.4332 183.675 20.0014 182.278 22.0268L182.29 29.7862C180.072 29.8057 177.545 29.8759 175.354 29.7667C175.384 27.1221 175.388 24.4762 175.364 21.8316C173.414 19.4823 171.108 16.8274 169.265 14.4494C169.212 9.87848 169.157 4.65202 169.278 0.0999156C171.569 0.137249 173.861 0.152857 176.153 0.146743L176.158 11.8946C177.037 12.9964 177.931 14.0852 178.84 15.1636C179.766 14.149 180.717 12.9665 181.571 11.8816C181.478 11.1601 181.525 8.63203 181.525 7.82539C181.511 5.23323 181.521 2.64094 181.556 0.0490465Z" fill="#404040"/>
<path d="M181.549 0.0490465L188.515 0.0454102C188.544 2.38169 188.541 4.71823 188.508 7.05439C187.421 6.83663 181.545 7.02795 181.545 7.02795C181.53 4.4358 181.514 2.64094 181.549 0.0490465Z" fill="#717171"/>
<path d="M153.032 0.077849C157.153 -0.00930633 161.489 0.0766779 165.644 0.053133C165.693 2.32216 165.663 4.69916 165.671 6.97691L156.394 6.96676C156.291 12.5451 156.379 18.4404 156.379 24.0431L156.401 29.7719C154.342 29.8591 151.495 29.8357 149.443 29.7693C149.642 21.1462 149.423 12.1991 149.498 3.53115C150.522 2.46408 151.927 1.00547 153.032 0.077849Z" fill="#404040"/>
<path d="M46.7896 0.0322266L53.6721 0.0408093C53.6708 7.67601 53.5698 15.5629 53.7078 23.1779L63.0282 23.174C63.0123 25.3724 63.0214 27.5721 63.0558 29.7718C59.0301 29.8876 53.9693 29.8772 49.9401 29.7796C48.8422 28.6856 47.8269 27.671 46.7863 26.5198C46.6296 23.5903 46.7566 19.4238 46.7563 16.4176C46.7347 10.9556 46.7458 5.49387 46.7896 0.0322266Z" fill="#404040"/>
<path d="M91.008 0.0314941L97.8849 0.0412519L97.9005 29.7967C95.5942 29.8188 93.2891 29.8162 90.9834 29.7889L91.008 0.0314941Z" fill="#404040"/>
</g>
<defs>
<clipPath id="clip0_235_155">
<rect width="188.544" height="29.8759" fill="white"/>
</clipPath>
</defs>
</svg>
