<svg width="273" height="61" viewBox="0 0 273 61" fill="none" xmlns="http://www.w3.org/2000/svg">
<g clip-path="url(#clip0_235_167)">
<path d="M1.41088 0.0154113C5.75258 -0.352754 21.8804 5.9826 27.3197 7.55713C36.2502 10.4864 44.9946 13.2549 53.9285 16.239C57.7988 17.5319 59.5146 18.9571 56.1085 22.5382C54.4167 24.3167 46.9624 30.869 44.9033 30.3335C42.3132 29.66 36.1723 22.1059 34.0937 19.7929C32.9955 18.5538 31.8961 17.2028 30.6947 16.0643C29.862 15.2749 28.8652 14.5145 27.6636 14.5715C26.7372 14.6154 25.9539 15.7684 25.5438 16.5111C22.3156 22.3569 17.5822 42.8905 14.2333 46.4315C13.591 47.1105 12.7981 47.5114 11.8504 47.5035C10.8531 47.4953 9.96788 46.9912 9.30096 46.2739C8.83092 45.7685 8.59155 45.19 8.40865 44.5336C7.30547 40.568 6.70242 36.3121 5.85366 32.271C4.81303 27.3159 -0.314113 5.53816 0.0151775 2.09799C0.110901 1.09774 0.697538 0.618992 1.41088 0.0154113Z" fill="#404040"/>
<path fill-rule="evenodd" clip-rule="evenodd" d="M152.796 10.4634L147.955 10.4783L147.909 20.1093C133.861 10.2752 125.183 31.9815 137.874 36.5299C143.105 37.9655 144.392 36.9341 145.584 35.9794C146.226 35.4655 146.84 34.9737 148.026 34.9011C148.314 35.3392 148.292 35.6686 148.26 36.1516C148.253 36.2531 148.246 36.3614 148.241 36.4794C149.079 36.8351 151.703 36.716 152.746 36.7129L152.796 10.4634ZM140.401 22.2753C143.235 21.3268 146.302 22.8433 147.269 25.6706C148.235 28.498 146.738 31.5753 143.916 32.5598C141.07 33.5526 137.959 32.0387 136.985 29.1861C136.009 26.3335 137.542 23.2325 140.401 22.2753Z" fill="#404040"/>
<path fill-rule="evenodd" clip-rule="evenodd" d="M121.761 18.8601C120.049 17.9766 119.098 17.4859 116.273 17.7606C113.536 18.2627 110.967 19.2096 109.39 21.6029C106.403 26.1359 107.418 32.8931 111.996 35.8642C114.177 37.2807 116.843 37.7452 119.375 37.1498C121.035 36.7673 121.724 36.3199 123.037 35.2828L123.733 34.8328L124.092 34.9879C124.19 35.9565 124.026 36.2065 124.613 36.705C125.449 36.7565 126.254 36.756 127.065 36.7385C127.62 36.7261 128.178 36.7055 128.749 36.6874C128.788 33.7797 128.785 30.8565 128.781 27.9364C128.778 24.6725 128.774 21.4132 128.829 18.1853C127.381 18.1379 125.805 18.0487 124.368 18.1302C123.965 18.7111 124.046 19.0472 124.103 19.2828C124.159 19.5127 124.192 19.6462 123.725 19.8173C122.935 19.4663 122.309 19.1431 121.761 18.8601ZM117.012 21.9699C120.014 21.2838 123.009 23.1462 123.721 26.1426C124.434 29.1395 122.598 32.1503 119.607 32.889C117.932 33.3029 116.159 32.9225 114.8 31.858C113.441 30.7936 112.648 29.1627 112.65 27.4364C112.652 24.8204 114.461 22.5529 117.012 21.9699Z" fill="#404040"/>
<path fill-rule="evenodd" clip-rule="evenodd" d="M243.049 18.9587C242.012 18.3272 240.641 17.4927 237.471 17.7411C235.507 18.1071 234.11 18.4489 232.476 19.6633C227.222 23.5674 227.803 32.4845 233.288 35.9484C235.475 37.3237 238.129 37.7468 240.635 37.1206C242.128 36.7582 242.956 36.2901 244.147 35.3639L244.717 34.8169L245.121 34.8824L245.385 36.5097C245.857 36.8427 247.942 36.7721 249.188 36.7304C249.446 36.7216 249.667 36.7139 249.832 36.7113L249.863 18.1886C249.689 18.1834 249.468 18.1746 249.217 18.1648C248.019 18.1174 246.143 18.0422 245.451 18.235C245.202 18.8509 245.179 18.9288 245.052 19.5798C244.256 19.6937 243.723 19.369 243.049 18.9587ZM238.111 21.9685C241.118 21.2612 244.131 23.1149 244.856 26.1174C245.582 29.12 243.748 32.1448 240.748 32.8886C237.725 33.6381 234.668 31.7834 233.936 28.7551C233.205 25.7272 235.078 22.6819 238.111 21.9685Z" fill="#404040"/>
<path d="M192.24 18.01C193.332 18.1837 195.314 18.1744 196.484 18.2035C197.408 22.7107 199.538 27.5551 200.397 32.4086L204.842 18.1391L210.178 18.1866C209.782 19.9556 208.457 23.3274 207.799 25.1229L203.45 36.9931C201.796 36.8823 199.535 36.9353 197.831 36.9327C197.003 34.048 195.646 30.4947 194.712 27.3992C194.578 26.6882 194.591 26.6338 194.159 26.0788C194.063 26.1458 190.957 35.7559 190.516 36.9406L184.851 36.9179C183.609 32.1246 179.885 23.49 178.162 18.1829L183.668 18.1705C184.703 22.5819 186.733 27.4221 187.856 32.2165C188.917 28.0574 190.756 22.0403 192.24 18.01Z" fill="#404040"/>
<path fill-rule="evenodd" clip-rule="evenodd" d="M173.192 20.5237C170.666 17.9325 166.935 16.9113 163.441 17.8546C158.203 19.2696 155.054 24.6103 156.353 29.8794C157.651 35.148 162.921 38.414 168.217 37.2325C171.749 36.4454 174.578 33.8072 175.611 30.3387C176.643 26.8706 175.718 23.115 173.192 20.5237ZM164.451 22.4041C167.246 21.5247 170.223 23.0789 171.1 25.8748C171.976 28.6706 170.417 31.6464 167.62 32.5186C164.829 33.3887 161.86 31.8335 160.985 29.0438C160.111 26.2531 161.662 23.2825 164.451 22.4041Z" fill="#404040"/>
<path d="M86.142 10.4827L90.9736 10.4935L90.9078 20.3208C94.234 17.6768 99.3287 16.6428 102.63 19.9816C105.953 23.3415 104.974 32.0936 104.921 36.6974L99.9785 36.724L99.961 29.053C99.9901 26.8184 100.194 25.1921 98.5641 23.4577C96.9906 21.7728 94.3902 21.5754 92.693 23.3033C90.0702 25.9736 91.1253 30.3227 90.9292 33.7109C90.8754 34.642 90.9316 35.7647 90.9327 36.6932L86.1359 36.7056C85.8596 28.7421 86.0723 18.563 86.142 10.4827Z" fill="#404040"/>
<path fill-rule="evenodd" clip-rule="evenodd" d="M202.771 44.6254C200.409 44.3559 197.533 44.5956 195.088 44.5791C194.644 48.2043 193.742 52.7858 192.935 56.8853C192.69 58.1291 192.454 59.3281 192.242 60.4425C196.521 60.5018 200.625 61.0672 204.341 59.0105C209.8 54.9095 211.34 45.6043 202.771 44.6254ZM197.959 47.4667C198.296 47.4605 198.634 47.4564 198.972 47.4548C199.523 47.4528 200.075 47.4564 200.626 47.4662C206.549 47.6146 206.872 52.9203 202.604 56.6373C200.71 57.4935 198.895 57.5286 196.896 57.5667L196.578 57.5734L196.117 57.5837C196.62 54.1384 197.28 50.8765 197.959 47.4667Z" fill="#404040"/>
<path d="M73.0678 17.7282C77.1572 17.5176 79.0313 17.8135 82.4493 20.0755C82.2112 20.3479 80.0444 22.7767 79.893 22.7754C77.172 22.7529 73.1459 19.4186 71.2684 23.199C71.5666 25.8278 80.4794 25.087 82.0138 27.6146C86.0731 34.3002 79.8547 37.0935 74.4238 37.3872C70.3943 37.2315 68.8261 36.4857 65.7227 34.1484C66.653 32.8658 67.0927 32.1091 67.8472 30.7095C70.6516 32.3245 76.3124 35.2687 78.472 31.2012C77.7478 28.3765 67.4183 30.1152 66.6131 24.6159C65.9174 19.8652 69.0662 18.468 73.0678 17.7282Z" fill="#404040"/>
<path d="M266.274 17.998C267.754 18.2271 270.541 18.1617 272.151 18.1648C270.201 21.1302 267.654 24.5055 265.551 27.4205C267.137 29.052 271.167 34.7297 272.386 36.7365C270.544 36.6829 268.364 36.7523 266.495 36.7647C265.368 34.8849 263.634 32.4961 262.368 30.6416C261.056 32.6743 259.581 34.7698 258.214 36.7787C256.11 36.6935 254.326 36.7262 252.223 36.7872C254.411 33.793 256.918 30.1481 259.256 27.3537C257.15 24.6567 254.529 21.0519 252.785 18.135L258.789 18.1691C259.462 19.6306 261.491 22.7765 262.426 24.363C263.682 22.2426 264.941 20.0656 266.274 17.998Z" fill="#404040"/>
<path d="M221.176 10.0782C224.224 9.74962 225.515 10.0798 228.283 11.4171C227.61 12.7454 227.154 13.7137 226.609 15.0969C225.498 14.5326 224.134 13.8269 222.857 14.2302C221.214 14.7493 220.119 16.488 220.762 18.18C221.629 18.7247 225.143 18.5069 226.354 18.4935L226.339 22.604L220.595 22.5905L220.63 31.2632L220.585 36.7065L215.74 36.7442C215.555 32.1148 215.77 27.236 215.597 22.4612C214.525 22.5813 213.219 22.5969 212.121 22.638L212.112 18.4101L215.63 18.4959C215.887 13.7921 216.48 11.8198 221.176 10.0782Z" fill="#404040"/>
<path d="M157.359 56.1457C158.473 53.8509 162.626 44.4404 165.054 44.4314C166.153 45.599 167.215 53.6809 167.704 55.9696C169.134 52.3146 171.621 48.249 173.344 44.4995C174.378 44.5536 175.593 44.3852 176.446 44.7969C176.626 45.6694 176.329 45.8381 175.873 46.8053C174.365 49.52 168.76 61.9698 165.665 60.2501C164.471 58.4766 163.817 52.8815 163.43 50.5144C162.592 52.5144 159.503 59.1129 157.401 60.2612C156.773 60.604 156.368 60.3755 155.823 60.1583C154.233 58.5486 152.686 47.6602 152.124 44.6064L155.791 44.5813C156.168 48.4453 157.033 52.2204 157.359 56.1457Z" fill="#404040"/>
<path fill-rule="evenodd" clip-rule="evenodd" d="M222.073 55.9172C222.465 50.7486 221.738 48.5744 215.848 48.8878C206.384 51.629 207.885 63.3976 218.417 60.3285C219.145 60.1167 219.748 59.6466 220.115 58.9832C220.101 58.1997 219.963 58.0012 219.552 57.4136C219.487 57.3208 219.414 57.2182 219.335 57.1017C218.946 57.2213 218.549 57.3667 218.152 57.5125C216.163 58.2414 214.157 58.9775 212.962 56.5156L213.103 56.0615C214.818 55.6631 220.061 55.9419 222.073 55.9172ZM215.587 51.4831C217.223 51.3362 218.386 51.378 219.227 52.9986L218.961 53.4527L217.979 53.5646C217.31 53.5832 216.207 53.6888 215.28 53.5935C214.678 53.5311 214.151 53.3837 213.867 53.0713C214.021 52.7703 214.144 52.5713 214.272 52.4197C214.56 52.0754 214.867 51.9759 215.587 51.4831Z" fill="#404040"/>
<path fill-rule="evenodd" clip-rule="evenodd" d="M255.469 48.8618C254.91 48.8499 254.35 48.8669 253.791 48.9133C248.341 50.5695 245.158 56.569 250.188 60.1675C251.898 61.3922 260.758 61.1989 257.127 57.0046L256.876 57.1546C254.915 58.3113 253.049 58.6587 251.231 56.9716L251.038 56.4499C251.808 55.719 255.707 55.8169 258.275 55.8814C259.047 55.9004 259.698 55.9169 260.109 55.9071C260.447 52.1015 260.357 48.9298 255.469 48.8618ZM253.817 51.4494C255.258 51.3643 256.857 51.4494 257.361 53.0953C257.107 53.3494 257.006 53.4499 256.875 53.4932C256.72 53.5442 256.524 53.5154 255.984 53.5649C255.826 53.57 255.642 53.5803 255.441 53.5917C254.234 53.6592 252.419 53.7607 251.901 52.9391C252.017 52.7149 252.154 52.535 252.308 52.3824C252.548 52.1448 252.831 51.9726 253.148 51.8025C253.357 51.6901 253.581 51.5788 253.817 51.4494Z" fill="#404040"/>
<path fill-rule="evenodd" clip-rule="evenodd" d="M186.413 55.9045C186.765 50.9669 186.364 48.6555 180.546 48.873C178.35 49.3545 176.464 50.1901 175.273 52.1097C172.089 57.2427 175.967 62.3396 181.771 60.5777C182.741 60.2834 184.016 59.9664 184.658 59.1927C184.663 58.3164 184.423 58.1628 183.785 57.3447C183.305 57.286 182.651 57.4736 181.926 57.6808C180.329 58.138 178.395 58.6916 177.26 56.9143C177.793 55.6772 182.225 55.8035 184.874 55.8787C185.521 55.8973 186.062 55.9128 186.413 55.9045ZM180.185 51.4478C181.523 51.3792 183.136 51.4612 183.59 52.9911C183.144 53.4798 183.058 53.4849 182.577 53.5148C182.433 53.5241 182.252 53.5354 182.014 53.5627C181.844 53.5674 181.651 53.5782 181.444 53.5901C180.283 53.6566 178.681 53.7478 178.228 52.837C178.689 52.0694 179.382 51.8339 180.185 51.4478Z" fill="#404040"/>
<path d="M236.009 49.145C236.817 49.0985 237.133 49.0215 237.906 49.3073C239.323 50.9607 239.64 55.1979 240.004 57.4618C241.605 54.8731 243.313 51.8778 244.786 49.2263L248.298 49.1679C247.72 50.2413 246.823 51.5638 246.153 52.6163C244.564 55.0201 243.379 57.711 241.582 59.7442C240.547 60.9157 239.465 60.7064 237.906 60.6806C237.548 58.5555 234.899 50.5971 235.379 49.3598L236.009 49.145Z" fill="#404040"/>
<path d="M267.888 48.8515C270.443 48.7691 274.607 49.6382 270.464 52.279C269.387 52.5231 269.213 52.2658 268.31 51.9937C265.183 51.0494 264.549 58.3317 264.206 60.3224C263.282 60.4718 262.171 60.586 261.377 60.0796C261.541 58.2306 262.583 50.193 263.705 49.1816C265.755 48.6324 265.542 50.9348 267.888 48.8515Z" fill="#404040"/>
<path d="M225.927 44.5761C227.01 44.5674 227.429 44.584 228.505 44.7452C229.177 45.6555 226.517 57.8849 226.319 60.1372L226.295 60.4339C225.19 60.4613 224.539 60.5323 223.472 60.2253C223.084 59.3634 225.62 46.3646 225.927 44.5761Z" fill="#404040"/>
<path d="M230.627 49.122C231.547 49.0837 232.76 48.8934 233.371 49.6224C232.914 53.1715 232.2 56.901 231.584 60.4409C230.762 60.4504 229.222 60.561 228.6 60.1263C228.687 58.1263 230.098 51.2106 230.627 49.122Z" fill="#404040"/>
<path d="M231.837 44.4607C233.244 44.4472 233.984 44.5214 234.462 45.8803C234.317 46.8726 234.1 47.0387 233.448 47.7549C232.04 47.7768 231.434 48.007 230.883 46.628C231.005 45.5823 231.262 45.3071 231.837 44.4607Z" fill="#404040"/>
</g>
<defs>
<clipPath id="clip0_235_167">
<rect width="272.386" height="60.9332" fill="white"/>
</clipPath>
</defs>
</svg>
