<svg width="85" height="53" viewBox="0 0 85 53" fill="none" xmlns="http://www.w3.org/2000/svg">
<g clip-path="url(#clip0_235_189)">
<path d="M19.221 11.4696C19.683 11.4293 20.5578 11.4436 21.0506 11.4368C20.6757 11.8177 20.0419 12.5566 19.6894 12.9695C19.9409 13.1121 20.2143 13.3084 20.4474 13.4797C23.9052 16.0229 26.6947 19.7945 26.0481 24.2821C25.6296 27.0984 24.1162 29.6378 21.8344 31.3527C18.1485 34.091 13.8002 34.0963 9.83574 31.9738C9.19502 31.6308 8.63385 31.3529 8.05114 30.9049C7.39753 30.3962 6.81721 29.8006 6.32645 29.1346C4.96107 27.3699 4.40063 25.2684 4.08496 23.1078C6.07028 23.0707 8.16642 23.0998 10.1589 23.1036C10.3101 24.2558 10.8195 25.5266 11.6899 26.3245C13.5026 27.986 16.6744 27.5464 18.2795 25.8128C19.0568 24.9868 19.4675 23.8839 19.4189 22.7528C19.3408 21.0465 18.2791 20.0679 17.1174 19.0027L15.5633 17.5841C15.2591 17.9762 14.8385 18.405 14.5067 18.8121C14.4679 16.4212 14.5 13.932 14.5031 11.5352C15.1752 11.5598 15.9553 11.5277 16.6362 11.5164C17.4901 11.5022 18.3695 11.4994 19.221 11.4696Z" fill="#717171"/>
<path d="M28.9021 19.6318C28.9296 19.631 28.957 19.6303 28.9845 19.6297C32.1898 19.577 35.6263 19.6294 38.8469 19.6293L41.9781 19.628C42.9193 19.6271 43.9602 19.5889 44.8757 19.7664C46.0799 20.004 47.0564 20.4511 47.964 21.2522C50.6035 23.5819 49.6091 27.267 49.8027 30.2944C49.848 31.0049 49.8032 31.8632 49.7791 32.552C49.7117 33.1446 49.1715 33.5188 48.5395 33.4642C47.6278 33.3855 46.217 33.7129 45.4516 33.1875C45.3315 33.1052 45.1645 32.7771 45.1441 32.6392C45.0456 31.9732 45.0888 31.2475 45.0905 30.5687L45.0992 26.5952C45.1001 25.5858 45.0955 24.769 44.2715 23.9823C43.4063 23.1566 42.2715 23.2465 41.1451 23.2556L41.145 26.3318L41.1484 30.4546C41.1489 31.131 41.1688 31.8146 41.1256 32.4906C41.1403 33.0467 40.5317 33.5419 39.9603 33.4664C39.089 33.3512 36.6105 33.9027 36.494 32.6499C36.4066 31.7089 36.4555 30.5472 36.4562 29.6203L36.4565 23.2475L32.5053 23.2567L32.5027 29.459C32.503 30.4582 32.5386 31.484 32.4895 32.4732C32.4483 33.3054 31.7058 33.4982 30.9679 33.4687C30.2494 33.44 29.5343 33.5265 28.8052 33.4466C28.2725 33.3882 27.9014 33.0863 27.8133 32.5672C27.7581 31.9646 27.7795 31.3115 27.7793 30.7034L27.7783 27.3099L27.7785 23.0109C27.7787 22.3504 27.7801 21.6867 27.7851 21.0264C27.7913 20.2192 27.9765 19.7319 28.9021 19.6318Z" fill="#717171"/>
<path d="M67.0423 28.0481C66.9435 27.5052 66.9929 25.2119 67.0726 24.6397C67.2831 23.1277 68.0384 21.7242 69.3155 20.7977C71.2908 19.3647 73.4555 19.6389 75.7615 19.6179C76.3606 19.6125 77.8437 19.5808 78.3598 19.6518C78.9601 19.6034 79.9408 19.8804 80.5225 20.1033C83.5227 21.2531 84.4071 24.2904 84.0777 27.1652C84.0161 27.7033 83.483 28.0358 82.9726 28.0215C81.7227 28.0465 80.4703 28.0351 79.2203 28.034L71.719 28.0343C72.0004 30.21 74.9115 29.841 76.5577 29.8406L81.5005 29.8378C82.0064 29.8372 82.5836 29.8061 83.0932 29.8446C84.4909 29.9658 84.0696 31.6398 84.0983 32.5652C84.1015 32.6687 83.9113 33.0032 83.8433 33.0869C83.4049 33.6284 82.1687 33.4738 81.5114 33.4724L78.7516 33.4674L75.0694 33.4701C72.8548 33.4725 70.9188 33.5678 69.0949 32.1098C67.9724 31.2125 67.1961 29.7601 67.0605 28.3609C67.0512 28.2568 67.0451 28.1525 67.0423 28.0481ZM71.6433 25.2413L76.4569 25.2405L79.4592 25.2415C78.9605 22.8609 76.5804 23.2696 74.6634 23.2536C73.1819 23.2911 71.9174 23.6362 71.6433 25.2413Z" fill="#717171"/>
<path d="M67.0426 27.7754C66.9432 27.2501 66.9929 25.0309 67.0731 24.4771C67.2848 23.014 68.0444 21.6558 69.3287 20.7592C71.3152 19.3725 73.4922 19.6378 75.8112 19.6175C76.4137 19.6123 77.9052 19.5816 78.4242 19.6503C78.1169 19.7761 77.5323 19.6294 77.3239 19.8115C76.8757 20.2032 76.5647 20.5076 76.0571 20.8513L68.994 25.7129C68.5007 26.0519 68.0407 26.3588 67.5038 26.634C67.4484 26.6624 67.3621 26.789 67.3304 26.8456L67.2396 26.8751L67.2196 26.8637C67.1574 26.8279 67.1679 26.8254 67.0987 26.8166C67.0206 27.0378 67.0935 27.4897 67.0426 27.7754Z" fill="#717171"/>
<path d="M60.6706 12.294C61.3685 12.2527 63.4193 12.1787 63.9695 12.467C64.2215 12.5991 64.3811 12.8075 64.4562 13.0679C64.5979 13.5596 64.5108 14.6902 64.5108 15.2517L64.5099 19.554V27.8888C64.5116 29.2155 64.5138 30.5428 64.515 31.8694C64.5159 32.6573 64.4837 33.2408 63.5412 33.4575C63.4115 33.469 63.0746 33.4887 62.942 33.4741C62.0647 33.3779 59.8555 33.872 59.6898 32.6405C59.6061 32.0174 59.6443 31.1548 59.6452 30.5292L59.6486 26.3432L59.6499 17.4889C59.6516 16.1818 59.6375 14.8749 59.643 13.568C59.646 12.8827 59.9079 12.4155 60.6706 12.294Z" fill="#717171"/>
<path d="M53.4684 19.6173C54.169 19.6123 54.9153 19.6242 55.6116 19.6074C57.491 19.5617 57.1625 20.8713 57.1629 22.1796L57.1634 25.3831L57.1629 29.9474C57.1625 30.7662 57.1774 31.5862 57.1407 32.4041C57.11 33.0847 56.7145 33.381 56.0139 33.4649C55.2131 33.4746 53.337 33.6062 52.7192 33.2149C52.1436 32.8501 52.3036 31.2788 52.3036 30.6245L52.3023 27.0599L52.3028 22.9292C52.3032 22.284 52.3028 21.6357 52.3096 20.9907C52.3181 20.1777 52.5272 19.7143 53.4684 19.6173Z" fill="#717171"/>
<path d="M63.7204 42.4045C62.9929 43.2987 62.3234 44.0331 61.1512 44.1099C60.3383 44.1501 59.5557 43.8726 58.959 43.2577C57.7393 42.001 57.6743 39.9124 58.8278 38.5775C59.3591 37.9631 60.1719 37.5894 60.9421 37.5786C61.7576 37.5673 62.4808 37.9093 63.0654 38.5324C62.8069 38.8811 62.4573 39.2454 62.2357 39.5661C62.2075 39.5761 61.9742 39.6759 61.991 39.6743C61.3794 39.2246 60.6148 39.0423 60.0318 39.6602C59.7448 39.9691 59.5795 40.3897 59.5717 40.8315C59.5666 41.2768 59.7275 41.705 60.0173 42.0153C60.2847 42.3044 60.5991 42.4403 60.9734 42.4382C61.7091 42.4343 62.177 41.7866 62.648 41.2433C62.6864 41.3468 62.7294 41.4483 62.7772 41.5471C63.007 42.0269 63.2537 42.2453 63.7204 42.4045Z" fill="#717171"/>
<path d="M67.9379 44.9484C68.4371 44.9237 68.9346 44.9318 69.4342 44.9349C69.426 46.8395 69.4273 48.7441 69.4382 50.6487L68.3099 50.6415C68.3339 49.5769 68.3334 48.498 68.3478 47.4312C68.3809 47.1399 68.3709 46.9441 68.3617 46.6536C67.9653 47.7303 67.3537 49.5482 67.0414 50.6307C66.7861 50.6509 66.4537 50.6455 66.1923 50.6491C66.0272 50.2796 65.8238 49.616 65.6914 49.22C65.4004 48.3315 65.1007 47.4461 64.7927 46.5638C64.9133 47.7078 64.8449 49.4306 64.8728 50.6478H63.728C63.7419 48.7993 63.7759 46.7807 63.7197 44.9416L64.2795 44.934C64.6245 44.9282 64.8759 44.9273 65.22 44.9542C65.6992 46.1988 66.1801 47.7181 66.6131 48.9933C66.915 47.8281 67.551 46.1476 67.9379 44.9484Z" fill="#717171"/>
<path d="M64.5371 39.2627C64.7828 38.9844 65.0716 38.6246 65.3377 38.3786C66.5206 37.2839 68.2489 37.3002 69.3545 38.5025C69.9227 39.1142 70.2469 39.9502 70.2555 40.826C70.2614 43.2049 68.0625 44.7567 66.1328 43.8531C65.7027 43.6515 65.5371 43.4632 65.1815 43.1828C65.3044 42.9604 65.6866 42.5514 65.8726 42.3082C65.9182 42.3121 66.1866 42.0806 66.2725 42.0205C67.0331 42.5618 67.9224 42.6826 68.4656 41.7279C68.6849 41.3501 68.7564 40.8908 68.6638 40.454C68.4746 39.5812 67.7395 39.0737 66.9511 39.3021C66.4044 39.4605 65.9872 40.0131 65.6101 40.4462C65.3773 39.8088 65.1329 39.5045 64.5371 39.2627Z" fill="#717171"/>
<path d="M53.2094 13.1087C53.8115 13.0572 54.4272 13.1031 55.0527 13.0814C56.1389 13.0437 57.1302 13.0356 57.1634 14.3564C57.1813 15.0686 57.246 15.9123 57.0041 16.5853C56.9058 16.859 56.5502 17.0167 56.2833 17.112C55.6727 17.1611 53.5143 17.206 52.9369 17.0235C52.0721 16.75 52.2862 14.6562 52.3654 13.9706C52.4119 13.5679 52.7487 13.2584 53.2094 13.1087Z" fill="#717171"/>
<path d="M29.2146 44.9395C29.5395 44.9434 29.8835 44.9347 30.2101 44.9307L30.2049 48.5032C30.2044 49.0934 30.1788 49.9763 30.2262 50.5441L29.2259 50.5533C29.2272 50.3652 29.2357 50.1711 29.2413 49.9827C28.6705 50.6327 28.0384 50.7901 27.1619 50.5293C26.9934 50.4558 26.8404 50.3556 26.7098 50.2338C25.889 49.4564 25.9742 47.7609 26.857 47.0526C27.6135 46.4456 28.5838 46.5171 29.2362 47.2043C29.2061 46.462 29.2488 45.7001 29.2146 44.9395ZM28.3677 49.9284C29.2476 49.7059 29.4069 48.7999 29.2058 48.0764C29.0577 47.5441 28.6026 47.3644 28.0297 47.3908C26.7569 47.8096 26.7864 49.9807 28.3677 49.9284Z" fill="#717171"/>
<path d="M34.4402 44.9307L34.4627 44.949C34.4919 45.7182 34.4647 46.612 34.4615 47.3904C34.8306 46.884 35.3431 46.5745 36.0327 46.648C36.4636 46.6903 36.8573 46.8908 37.1235 47.2031C37.8635 48.0625 37.6818 49.6756 36.7203 50.3725C36.2122 50.6756 35.3844 50.7827 34.8823 50.4192C34.7627 50.3326 34.6165 50.1744 34.4882 50.1237C34.446 50.22 34.4716 50.4276 34.4775 50.5414C34.144 50.5399 33.827 50.5506 33.4941 50.5622L33.4944 44.9319C33.8031 44.9371 34.1299 44.9315 34.4402 44.9307ZM35.6794 49.9208C36.8908 49.5274 36.9785 47.3233 35.3352 47.384C34.4386 47.6652 34.3031 48.5226 34.5329 49.2986C34.6759 49.7814 35.1567 49.9516 35.6794 49.9208Z" fill="#717171"/>
<path d="M71.8941 46.5747C72.1409 46.558 72.7459 46.5455 72.9751 46.6741C73.0977 46.7431 73.2107 46.9658 73.4124 47.0182C73.4978 46.9184 73.3653 46.8169 73.4515 46.6688C73.6704 46.6226 74.1021 46.6449 74.3405 46.6489C74.3149 47.9279 74.3341 49.2697 74.3397 50.5514C74.16 50.5514 73.513 50.5766 73.4076 50.4991C73.3988 50.3839 73.3988 50.3226 73.4048 50.2074L73.3249 50.2674C72.7594 50.818 71.7663 50.7194 71.1525 50.3104C70.7044 50.0077 70.3961 49.533 70.2979 48.9954C70.0798 47.8236 70.7248 46.7893 71.8941 46.5747ZM72.5626 49.6361C73.1276 49.475 73.4595 48.881 73.3058 48.3052C73.152 47.7298 72.5702 47.3878 72.0023 47.5391C71.4276 47.6925 71.0862 48.2922 71.2419 48.8745C71.3977 49.4571 71.9907 49.7988 72.5626 49.6361Z" fill="#717171"/>
<path d="M6.66313 46.5841C7.78702 46.4281 8.82247 47.2184 8.9687 48.3436C9.11497 49.4687 8.31593 50.4974 7.18957 50.634C6.07671 50.769 5.06311 49.9818 4.91862 48.8701C4.77414 47.7583 5.55279 46.7377 6.66313 46.5841ZM7.17454 49.8975C7.44645 49.8153 7.72509 49.6584 7.83505 49.3889C8.24387 48.3878 7.95667 47.246 6.72239 47.3307C5.43473 47.7765 5.56774 50.0341 7.17454 49.8975Z" fill="#717171"/>
<path d="M59.9969 46.5645C60.7672 46.5741 61.5056 47.0153 61.8434 47.7031C62.0485 48.1206 62.0574 48.4704 62.0866 48.9208C61.0808 48.8995 59.984 48.918 58.9721 48.918C59.2885 49.9519 60.2381 50.051 60.9444 49.3102C61.1787 49.3022 61.4239 49.3022 61.6593 49.2986C61.756 49.2974 61.7621 49.2918 61.8551 49.3274L61.8742 49.4257C61.8402 49.5805 61.7726 49.6892 61.6775 49.8148C60.5318 51.3308 58.1565 50.6646 58.0076 48.7515C57.9672 48.2125 58.1436 47.679 58.4984 47.2687C58.909 46.7947 59.3864 46.6134 59.9969 46.5645ZM59.0118 48.1888L60.1422 48.1864L61.0958 48.184C60.7984 47.6486 60.5443 47.4015 59.8946 47.4368C59.4734 47.5511 59.2982 47.6814 59.0769 48.0681C59.0539 48.1078 59.0324 48.1479 59.0118 48.1888Z" fill="#717171"/>
<path d="M55.5954 46.5645C57.2413 46.6947 58.0696 47.6115 57.9967 48.9198L54.2755 48.9182C54.6373 49.9729 55.7858 50.0202 56.6651 49.3127C56.9647 49.2999 57.301 49.3035 57.6036 49.3015C57.7509 49.3103 57.7162 49.2894 57.7965 49.358C57.7906 49.5448 57.6241 49.7344 57.4846 49.8763C56.0517 51.335 53.2514 50.6038 53.1045 48.7262C53.0629 48.1835 53.2891 47.6504 53.7321 47.2455C54.2613 46.7609 54.8331 46.6041 55.5954 46.5645ZM54.3269 48.1899L55.8534 48.1875L56.8301 48.1859C56.4879 47.6111 56.1736 47.4203 55.3736 47.4375C54.7778 47.597 54.6084 47.7261 54.3269 48.1899Z" fill="#717171"/>
<path d="M13.8312 46.5713L14.7048 46.5645L14.5497 47.1315C14.3154 48.1449 13.8583 49.5969 13.5669 50.6311L12.601 50.6452C12.4257 49.698 12.0508 48.6437 11.8859 47.6922C11.5999 48.6492 11.3352 49.6668 11.0634 50.6341C10.7541 50.6337 10.4353 50.6435 10.1251 50.6491C9.84861 49.4424 9.33676 47.7865 8.98633 46.57L9.94872 46.5755C10.155 47.5957 10.4588 48.6914 10.6889 49.7249C10.8255 48.947 11.2829 47.4037 11.5052 46.5713H12.3578C12.5765 47.4003 12.8564 48.9402 13.1188 49.6749C13.3289 48.6501 13.5896 47.591 13.8312 46.5713Z" fill="#717171"/>
<path d="M44.7044 44.9379C45.8848 44.8622 46.2663 45.3772 46.4349 46.5447L45.4846 46.5434C45.4251 45.9874 44.8938 45.596 44.5253 46.1283C44.3885 46.3912 44.4467 46.8366 44.7089 46.959C45.6043 47.3771 46.6556 47.4744 46.5583 48.8261C46.4785 49.9395 46.0689 50.4818 45.0123 50.6491C43.8547 50.6405 43.4618 49.9279 43.2969 48.8287L44.2395 48.8166C44.2936 49.0786 44.3347 49.3484 44.5579 49.5149C45.0713 49.9019 45.6588 49.4289 45.4988 48.8001C45.3995 48.3928 44.9182 48.2333 44.5794 48.107C43.7452 47.7957 43.3628 47.2599 43.5229 46.3017C43.6544 45.5143 43.9602 45.1351 44.7044 44.9379Z" fill="#717171"/>
<path d="M47.3818 44.9307L48.2786 44.9311C48.2417 45.3852 48.2609 46.2436 48.2598 46.7285C48.36 46.6095 48.5686 46.3898 48.7057 46.3447C51.0469 45.5771 50.6224 48.9691 50.6149 50.6489C50.3294 50.6475 49.9983 50.6556 49.7185 50.631L49.7234 48.8551C49.7433 47.8231 49.5558 46.7173 48.4959 47.4889C48.1272 47.7578 48.2281 50.1662 48.2319 50.6171C47.9543 50.6117 47.6632 50.6193 47.3845 50.6216L47.3818 44.9307Z" fill="#717171"/>
<path d="M23.9414 46.5794C24.0048 46.5725 24.0684 46.568 24.1323 46.566C25.8221 46.5174 26.1208 47.6481 26.1412 48.854C25.1242 48.8483 24.1071 48.8487 23.0901 48.8548C23.124 49.0014 23.1587 49.1536 23.2238 49.292C23.3458 49.5451 23.5768 49.7464 23.8669 49.8517C24.3814 50.0374 24.9648 49.9092 25.4511 49.7276C25.5993 49.6508 25.6003 49.6206 25.7506 49.6312C25.8518 49.7823 25.7969 50.1199 25.7869 50.3215C24.3503 50.94 22.4101 50.755 22.1054 49.1389C21.876 47.922 22.4507 46.7868 23.9414 46.5794ZM23.1055 48.2151L24.2287 48.209L25.1471 48.2098C25.0287 47.6796 24.9205 47.3044 24.1911 47.2362C23.4871 47.344 23.2931 47.6314 23.1055 48.2151Z" fill="#717171"/>
<path d="M17.0074 46.5806C18.4791 46.4144 18.7255 47.5568 18.7892 48.8532C17.973 48.8504 17.1569 48.852 16.3408 48.8585C16.5449 50.0332 17.3319 50.1382 18.2345 49.7258C18.3408 49.6555 18.352 49.6188 18.4526 49.6368C18.5353 49.7715 18.4976 50.1402 18.4924 50.3268C17.3671 50.9205 15.8337 50.7776 15.5695 49.1876C15.365 47.957 15.8083 46.8145 17.0074 46.5806ZM16.3591 48.2179L17.2005 48.2114L17.9879 48.2171C17.8896 47.6944 17.7978 47.3017 17.2372 47.2404C16.6687 47.3278 16.5039 47.6332 16.3591 48.2179Z" fill="#717171"/>
<path d="M77.6123 46.5678L78.512 46.5669L78.5116 46.5888C78.5052 47.1454 78.3779 49.2954 78.783 49.5594C80.3075 50.5527 79.9856 47.4486 79.9758 46.5707L80.8751 46.5645C80.8646 46.957 80.8601 47.3499 80.8624 47.7428C80.8616 48.6798 80.8657 49.6169 80.8744 50.5535C80.5947 50.5576 80.315 50.5576 80.0354 50.5531C79.9564 50.4754 79.9781 50.4118 79.9646 50.2635C79.8309 50.2445 79.4652 50.6461 79.1402 50.6489C77.7246 50.6622 77.5719 49.4855 77.6131 48.2146C77.6292 47.713 77.6131 47.0846 77.6123 46.5678Z" fill="#717171"/>
<path d="M81.9979 44.9347C82.2327 44.9235 82.4665 44.9379 82.7012 44.9482C82.697 45.34 82.7082 45.9629 82.6537 46.3323C82.8656 46.3188 83.1111 46.3192 83.3258 46.3143C83.3178 46.6231 83.3239 46.9597 83.323 47.2707C83.0831 47.2814 82.9066 47.2675 82.6663 47.2505C82.6975 47.5673 82.7147 50.5333 82.6551 50.6361L82.4748 50.6442L81.5773 50.6491L81.5834 47.2559L80.8811 47.2927L80.875 46.3157C81.1125 46.3192 81.3501 46.3251 81.5876 46.3323C81.5787 45.958 81.5461 45.3413 81.5913 44.9904C81.6835 44.9181 81.868 44.9365 81.9979 44.9347Z" fill="#717171"/>
<path d="M21.6313 46.5649C21.8084 46.5612 21.888 46.5771 22.0017 46.6779C22.0919 46.8988 22.0463 47.2752 22.0411 47.5372C20.2424 46.7434 20.586 49.7468 20.597 50.6364C20.3939 50.641 19.7896 50.6687 19.6276 50.6238L19.6072 50.5667L19.6064 46.638L20.5945 46.6406L20.5896 47.3781C20.8604 46.8703 21.0315 46.6611 21.6313 46.5649Z" fill="#717171"/>
<path d="M76.7214 46.5645L76.7598 46.5735C76.8025 46.7031 76.7891 47.2907 76.7891 47.4646C75.8974 47.6817 76.0084 48.0575 75.9908 49.0192C75.9813 49.5472 75.9982 50.0871 76.0028 50.616C75.7825 50.6209 75.3461 50.7026 75.1738 50.5893L75.1597 50.4625L75.1572 46.6461C75.3916 46.6502 75.6256 46.6514 75.86 46.6498C75.9506 46.7282 75.9005 46.7811 75.9309 46.9805C76.2297 46.8857 76.1642 46.6654 76.7214 46.5645Z" fill="#717171"/>
<path d="M52.9024 46.5682C53.0082 46.5666 52.9811 46.5488 53.0576 46.6078C53.1164 46.8421 53.0962 47.1923 53.0966 47.451C52.9087 47.4996 52.593 47.5685 52.474 47.7434C52.1608 48.2029 52.2683 50.0101 52.2725 50.6491C52.0317 50.6342 51.7157 50.6433 51.4696 50.6429L51.4658 46.6454C51.7028 46.6359 51.9496 46.6177 52.1848 46.6437C52.2575 46.7477 52.2328 46.8025 52.2374 46.9663C52.3599 46.9547 52.5234 46.687 52.862 46.5806L52.9024 46.5682Z" fill="#717171"/>
<path d="M65.7713 41.6912C66.0784 41.6497 66.6525 41.6686 66.9879 41.6628C66.8501 41.7574 66.5396 41.9587 66.43 42.0541C66.3364 42.0939 66.0438 42.2472 65.9941 42.2446C65.7914 42.4056 65.3747 42.6763 65.2408 42.8235C65.1232 42.9263 64.6984 43.1893 64.5371 43.2967C64.5427 42.9667 64.5474 42.6539 64.579 42.3237C64.9041 42.2165 65.0984 42.1378 65.3452 41.9544C65.4915 41.8456 65.5608 41.7135 65.7713 41.6912Z" fill="#717171"/>
<path d="M63.7203 37.5784C63.7182 38.1423 63.7284 38.8457 63.692 39.396C63.5315 39.5161 63.3889 39.6143 63.2515 39.7798C62.8631 40.2486 62.8627 40.9048 62.3121 40.8081C61.9542 40.8537 61.6283 40.8463 61.2695 40.8445C61.5204 40.5167 61.7461 40.2177 61.9828 39.872C61.9644 39.8741 62.2196 39.742 62.2504 39.7288C62.4928 39.3041 62.8751 38.8219 63.1577 38.3602C63.3508 38.0737 63.5156 37.8474 63.7203 37.5784Z" fill="#717171"/>
<path d="M61.8255 40.1338C61.8111 40.1353 62.01 40.0387 62.0341 40.0291C61.9646 40.1731 61.8235 40.2876 61.7207 40.4055C61.7537 40.5367 61.7701 40.6826 61.8402 40.7622C61.9223 40.7537 62.0044 40.7464 62.0865 40.7402L62.0821 40.8182C61.8031 40.8516 61.5492 40.8461 61.2695 40.8448C61.4651 40.6052 61.641 40.3866 61.8255 40.1338Z" fill="#717171"/>
<path d="M64.2609 39.2122L64.3593 39.2273L64.3518 39.9832C64.4989 39.9596 64.6979 39.908 64.8266 39.9519L64.8051 39.999C64.6377 40.0335 64.5508 40.0333 64.383 40.0386C64.3435 40.1778 64.3549 40.3052 64.3567 40.4493L65.0638 40.4493L64.9654 40.0568L65.0352 39.9482L65.131 40.4186L65.2399 40.4635V40.5258L65.1371 40.5573C65.0897 40.687 64.9904 40.9065 65.0488 41.0289C65.1398 41.0813 65.2878 41.1576 65.3541 41.2273C64.9144 41.099 64.9904 41.0687 64.7282 41.4359L64.6601 41.4032L64.8894 41.0738L64.3553 40.9577L64.3593 41.6629L64.2706 41.6444L64.2662 40.9971L63.7207 41.0769C63.8538 41.2627 63.9969 41.4429 64.1498 41.6161L64.076 41.6444C63.8072 41.356 63.4905 41.062 63.5718 40.6626C63.6623 40.7509 63.6693 40.8705 63.6961 40.9939C63.9034 40.9672 64.1164 40.9679 64.2539 40.8453C64.2675 40.7142 64.275 40.679 64.2455 40.5511C64.0466 40.5183 63.2112 40.543 62.9402 40.5445L62.9033 40.4636C63.3342 40.4394 63.8296 40.4547 64.2666 40.4597C64.2631 40.325 64.296 40.1762 64.235 40.0764C64.0119 40.0076 63.9495 39.9899 63.7172 39.9641C63.588 40.0734 63.6645 40.2134 63.5428 40.373C63.4668 40.2092 63.6183 40.0592 63.5797 39.8859C63.5749 39.8628 63.4396 39.8548 63.3693 39.7515L63.3438 39.7501L63.646 39.8079C63.7541 39.749 63.8199 39.5138 64.0417 39.3005L64.0892 39.3539C63.9034 39.5549 63.8472 39.6418 63.7031 39.8717C63.8753 39.9164 64.0944 39.9485 64.2741 39.9789L64.2609 39.2122Z" fill="#717171"/>
<path d="M63.7197 40.8487L64.5366 40.8459L64.3868 41.6038L64.3215 41.6629C63.7886 41.5896 63.7344 41.5369 63.7197 40.8487Z" fill="#717171"/>
<path d="M62.9033 40.846C62.9266 40.7494 62.9573 40.6131 62.9971 40.5233C63.0684 40.3629 63.3677 39.9315 63.5826 40.0491C63.4503 40.1952 63.411 40.3564 63.3465 40.3967L63.1662 40.3571L63.1814 40.358C63.2233 40.4288 63.304 40.4343 63.3069 40.4501C63.33 40.5689 63.2396 40.6717 63.2849 40.7839C63.3575 40.6745 63.3119 40.5786 63.3889 40.5037C63.5276 40.5214 63.5648 40.5336 63.6979 40.5807C63.7344 40.6491 63.7147 40.751 63.7168 40.8433C63.456 40.8399 63.1604 40.8294 62.9033 40.846Z" fill="#717171"/>
<path d="M62.9033 40.8535C63.0703 40.8524 63.5851 40.8343 63.7077 40.8584C63.7259 40.9525 63.7213 40.9784 63.7129 41.0749C63.6281 41.1651 63.4969 41.1645 63.3691 41.1842C63.3526 41.0934 63.3483 41.0055 63.2925 40.9405C63.2425 41.2343 63.4376 41.4506 63.6032 41.6629C63.177 41.5624 63.0151 41.2705 62.9033 40.8535Z" fill="#717171"/>
<path d="M64.5371 40.0291C65.0618 40.0653 65.2664 40.4284 65.354 40.8299C65.2482 40.8348 65.1221 40.8376 65.0185 40.846L64.9422 40.8154L64.8751 40.495L64.9062 40.4553L64.9514 40.449L64.9954 40.3959L64.9819 40.3988L65.0055 40.4076L65.0068 40.3794L65.0022 40.3765L64.9748 40.4142L64.9053 40.4271C64.8185 40.3942 64.6232 40.1249 64.5371 40.0291Z" fill="#717171"/>
<path d="M63.7283 39.2122L63.9203 39.3516C64.2383 39.8707 64.2232 39.9588 64.4238 40.3211L64.5366 40.8459L63.7253 40.846C63.7233 40.6533 63.7102 40.483 63.7555 40.2968C63.948 40.2898 64.0478 40.29 64.2398 40.2439L64.2645 40.1809C64.1168 40.1222 63.8886 40.1912 63.7197 40.2228L63.7283 39.2122Z" fill="#717171"/>
<path d="M64.8176 40.8542C65.12 40.8526 65.1342 40.8128 65.334 40.9235C65.4236 41.1931 65.1961 41.4569 64.9709 41.6629C64.8818 41.5826 64.6832 41.4946 64.5611 41.4342C64.4827 41.2932 64.616 41.0401 64.6796 40.8906L64.8176 40.8542Z" fill="#717171"/>
<path d="M11.2638 0H13.1815C13.65 0.146273 14.3634 0.17315 14.8948 0.319667C20.3258 1.81693 22.8604 4.82175 23.6906 10.3566L17.6075 10.3633C17.2535 7.91835 15.8533 6.10205 13.1272 6.11892C9.28343 6.14271 6.76509 10.2252 9.4883 13.3412C9.84897 13.7539 10.2628 14.1112 10.6762 14.4895L12.2076 15.8943C12.5186 15.4941 12.9487 15.0378 13.2925 14.6543C13.2749 16.2119 13.2943 17.803 13.2884 19.3627C13.2862 19.9319 13.253 21.4106 13.3176 21.8998C11.8387 21.9936 10.1877 21.9268 8.69529 21.9916C8.20137 22.013 7.15251 21.9715 6.71436 22.0569C7.13682 21.5481 7.63773 21.0086 8.08174 20.5114C5.29305 18.7218 2.57991 15.7579 1.85203 12.4608C1.23101 9.64787 1.98255 7.05527 3.5078 4.6588C4.75299 2.70238 6.98341 1.15008 9.18616 0.450543C9.97888 0.198805 10.5078 0.167725 11.2638 0Z" fill="#717171"/>
<path d="M0.967496 47.3047C1.25558 46.9344 1.53405 46.6837 2.04487 46.5968C4.61836 46.1582 4.74168 50.3181 2.49975 50.5769C1.82904 50.6541 1.33311 50.509 0.965364 49.9773L0.970288 52.2829L0 52.2821V46.6619L0.968709 46.6595L0.967496 47.3047ZM2.21605 49.8706C3.41924 49.411 3.45355 47.2166 1.81479 47.3144C1.48088 47.43 1.19339 47.6071 1.07508 47.9289C0.734545 48.8555 0.917885 49.9773 2.21605 49.8706Z" fill="#717171"/>
<path d="M37.5781 46.5645L38.6155 46.5673C38.9698 47.5612 39.3137 48.5587 39.6471 49.5591C39.9281 48.7014 40.3634 47.3942 40.7039 46.5673L41.6627 46.5669L40.4762 49.5145C40.1723 50.268 39.8572 51.2967 39.2595 51.8792C39.0516 52.0819 38.622 52.2124 38.3389 52.2829H38.1127C37.5742 52.1763 37.7377 51.9128 37.7473 51.4276C38.7084 51.6672 38.8663 51.1646 39.1696 50.4054C38.6755 49.2218 38.0135 47.7505 37.5781 46.5645Z" fill="#717171"/>
<path d="M84.9595 46.5645V50.6429C84.6922 50.6522 84.4113 50.648 84.1426 50.6488C84.1531 49.2893 84.1552 47.9303 84.1496 46.5708L84.9595 46.5645Z" fill="#717171"/>
<path d="M84.9595 44.9307V46.5292C84.6876 46.5285 84.4153 46.5403 84.1437 46.5645L84.1426 44.9446L84.9595 44.9307Z" fill="#717171"/>
</g>
<defs>
<clipPath id="clip0_235_189">
<rect width="84.9595" height="52.2829" fill="white"/>
</clipPath>
</defs>
</svg>
