<svg width="219" height="41" viewBox="0 0 219 41" fill="none" xmlns="http://www.w3.org/2000/svg">
<g clip-path="url(#clip0_235_253)">
<path d="M30.6773 0.305999C32.6546 -0.101075 35.1802 -0.0356391 37.1982 0.122938C40.0698 0.0189936 43.8525 -0.0417745 46.7103 0.11225C47.2256 0.0241426 47.5245 -0.0423136 48.0456 0.101034C50.2177 0.0623304 52.3899 0.0385346 54.5624 0.0296355L54.5377 17.4611C54.5362 21.2901 54.8262 26.0438 54.021 29.7091C51.4739 41.3041 35.5633 44.0525 27.7112 36.2711C27.0224 35.5882 25.9889 34.2851 25.5746 33.4028C24.6246 33.7047 23.5348 34.304 22.6213 34.733C20.0034 35.9625 17.4752 37.5137 14.8972 38.7915C15.8137 36.7318 16.7025 35.6549 17.8661 33.7781C13.2167 36.6006 6.24129 38.7776 1.1241 40.6892C2.24004 39.5413 4.69162 37.3755 5.92929 36.4435C3.97594 36.5959 1.95239 36.7814 0 36.8471C2.58592 36.1364 6.51817 34.843 8.89644 33.5903C9.39892 33.3257 10.2 32.4467 10.5866 31.9923C9.07211 32.2249 1.67667 32.7022 0.0657966 32.6344C1.64873 32.3506 4.56574 31.3726 6.27583 30.9131C9.37195 30.0813 12.5167 29.2816 15.5975 28.4216C16.1456 27.858 16.3125 27.5959 16.7353 26.9272C12.2685 27.1277 7.67678 27.7181 3.07716 27.8293C4.09069 27.4209 7.43501 26.6402 8.60176 26.3478L19.1215 23.7022C19.0109 23.3014 18.9707 23.149 18.7745 22.7844C17.8952 22.7542 15.2592 23.0886 14.1453 23.1795C10.9128 23.4318 7.67873 23.6658 4.44342 23.8811C8.79603 22.5389 13.4224 21.6401 17.8037 20.3851C18.733 20.1189 19.2277 20.1023 19.7369 19.122L19.6486 19.0018C17.7937 19.2948 15.8887 19.5121 14.0191 19.7723C12.2587 20.0173 10.1987 20.3976 8.44995 20.533C11.3474 19.6682 14.2188 18.6805 17.1283 17.8467C18.6636 17.4065 20.2134 16.9436 21.7057 16.376C22.1722 15.6908 22.4594 14.9795 22.7506 14.2103C20.9277 14.606 17.2464 15.015 15.1995 15.3441C16.9027 14.451 20.8972 13.3084 22.8167 12.73C22.4759 11.4271 22.301 10.0864 22.2964 8.7397C21.3396 8.73442 20.5767 8.74532 19.6222 8.59486C19.3385 8.85266 18.4919 9.62742 18.2059 9.80151C16.3169 10.9513 15.7004 10.9866 14.256 12.7047C15.0376 14.7467 15.1716 15.0297 14.4679 17.1468C13.8779 17.4011 12.5236 17.7406 11.8533 17.9272C11.306 17.3948 10.8865 16.8265 10.5144 16.1637C10.7598 13.64 11.8938 10.4086 13.1918 8.23167C13.6224 7.50943 14.3992 6.49933 14.9099 5.74346C14.2841 5.9184 6.25781 7.64372 6.22063 7.64097C6.32551 7.56688 6.46895 7.47824 6.58989 7.43271C12.0184 5.39031 17.5391 3.37131 23.2681 2.34641C23.6528 2.27762 24.039 2.21491 24.4289 2.13691C25.7276 1.20947 29.0227 0.575516 30.6773 0.305999Z" fill="#404040"/>
<path d="M48.0453 0.10094C50.2173 0.0622359 52.3896 0.0384401 54.562 0.029541L54.5373 17.461C54.5358 21.29 54.8258 26.0437 54.0206 29.709C51.4736 41.304 35.563 44.0524 27.7108 36.271C27.0221 35.5881 25.9886 34.285 25.5742 33.4027C27.6568 32.3374 31.0107 31.4926 33.305 30.9523C35.6383 30.4143 38.2349 30.4145 40.3216 29.1392C42.0801 28.0645 42.329 25.8693 41.0891 24.284C38.4206 20.872 34.1879 19.3355 30.0638 18.536C31.6752 16.6719 32.8978 16.1814 35.1559 15.2319C37.7328 17.7969 39.6999 18.4025 43.3284 18.5915C44.9792 17.1317 45.8122 15.1079 45.977 13.1505C46.2598 9.79304 46.2201 9.75371 49.21 8.58456C49.7019 8.39213 50.4779 6.92012 51.3821 6.41663C51.3813 5.04685 51.4231 3.28175 51.3139 1.94981L51.0732 1.6996C50.9869 1.56543 48.565 0.449126 48.0453 0.10094Z" fill="#717171"/>
<path d="M37.1987 0.122928C40.0704 0.0189831 43.8531 -0.041785 46.7109 0.11224L46.3272 0.475093L45.796 0.716847L45.2236 0.97602L45.0538 1.15304C44.4141 1.30182 44.2605 1.38015 43.6944 1.67875L43.5024 1.95643C43.4502 4.45795 42.9883 6.26711 44.6869 8.12708C43.7241 10.9478 42.7166 10.8545 41.3068 13.1624C41.2111 13.3189 41.1162 14.1533 41.0893 14.3976C40.4454 13.3882 38.9721 12.6556 37.9281 12.0805L40.0815 12.461C39.6564 12.2346 37.5014 11.1928 37.1527 11.2721C36.9827 13.514 36.3651 14.8034 34.0293 13.2937C34.8644 11.6455 34.8938 11.1409 34.9623 9.30391C36.9367 9.639 38.0553 10.4904 39.5582 11.7156C38.2524 9.25792 37.4993 8.88636 34.8316 8.17237C35.164 7.70162 35.731 7.08373 36.1242 6.63288C36.6795 7.23201 37.1671 7.65885 37.7829 8.19875C38.4633 7.6093 39.702 6.23824 40.1003 5.44222C41.5114 2.62153 39.3489 1.20618 37.1987 0.122928Z" fill="#717171"/>
<path d="M46.7104 0.112568C47.2257 0.024461 47.5247 -0.0419953 48.0457 0.101353C48.5654 0.449539 50.9874 1.56584 51.0737 1.70002L51.3143 1.95022L50.1843 2.49773C50.2051 3.11066 50.1874 4.58069 49.1968 4.19236C48.9435 3.90174 49.0025 3.41098 49.005 3.01381L47.6121 3.53637C47.6077 4.28619 47.6435 6.85677 47.3926 7.4383L47.3819 7.43819L47.4293 7.2195L47.3292 7.16055C47.2197 5.83513 47.2448 4.88856 47.2819 3.55605C46.0057 3.06205 44.7451 2.5287 43.502 1.95676L43.6939 1.67908C44.2601 1.38048 44.4136 1.30215 45.0533 1.15337L45.2232 0.976349L45.7955 0.717176L46.3267 0.475422L46.7104 0.112568Z" fill="#717171"/>
<path d="M43.6943 1.67903C44.2605 1.38043 44.414 1.3021 45.0538 1.15332C46.1093 1.60594 47.8005 2.3793 48.8555 2.71455C48.4149 2.90614 47.8227 3.18464 47.3868 3.35046C46.617 3.00942 44.3093 2.04865 43.6943 1.67903Z" fill="#404040"/>
<path d="M46.7099 0.112568C47.2252 0.024461 47.5241 -0.0419952 48.0452 0.101353C48.5649 0.449539 50.9869 1.56584 51.0732 1.70002C50.9194 1.81911 50.5145 2.06444 50.3404 2.0585C49.4141 2.02686 47.0134 0.9837 46.3262 0.475422L46.7099 0.112568Z" fill="#404040"/>
<path d="M45.796 0.717041C46.8612 1.10783 48.5154 1.61097 49.3443 2.32764L49.2727 2.41176C48.2462 2.26275 46.3462 1.3523 45.2236 0.976214L45.796 0.717041Z" fill="#404040"/>
<path d="M24.4287 2.13706C25.7274 1.20962 29.0225 0.575669 30.6771 0.306152L31.0446 0.447241L31.0855 0.468893C31.8982 0.894636 33.1401 0.92529 34.0458 0.914923C33.3314 1.02043 31.8214 1.01128 31.4383 1.25366L29.9458 1.38336C30.8026 1.5004 33.3766 1.7235 33.8573 2.41299C33.5282 3.16764 31.0914 2.82839 30.3938 2.77956L30.3139 2.77282C28.015 2.1116 26.5833 2.31946 24.4287 2.13706Z" fill="#717171"/>
<path d="M31.0449 0.447021C33.5197 0.598626 37.5102 0.62014 39.2036 2.60535C39.4764 2.92507 39.7728 3.4427 39.9938 3.82188C37.539 1.35696 36.1777 1.25804 32.6997 1.24957C32.2793 1.2475 31.8589 1.2488 31.4386 1.25344C31.8218 1.01106 33.3317 1.02021 34.0462 0.914703C33.1404 0.92507 31.8985 0.894416 31.0858 0.468673L31.0449 0.447021Z" fill="#717171"/>
<path d="M30.3145 2.77295L30.3943 2.77969C31.6269 3.4268 32.1672 3.23372 33.3135 4.31594L31.3985 4.20594C30.9945 3.81613 30.5197 3.38482 30.1787 2.94622L30.3145 2.77295Z" fill="#717171"/>
<path d="M24.3721 3.14917L23.8743 3.66916L23.8889 3.80755C24.5225 3.70835 25.1194 3.36145 25.6915 3.2651C27.1649 3.01697 28.7548 3.53334 29.928 4.42802C32.4846 6.37761 34.0099 9.09656 32.8545 12.2719C30.7476 11.4854 30.0966 10.6628 29.0176 8.70333C29.5776 9.00115 30.265 9.38762 30.8354 9.63096C29.5333 8.05505 29.229 7.65047 27.2231 7.00494C27.6779 6.92926 28.2367 6.82799 28.6917 6.79829C29.1956 6.76538 30.337 6.9241 30.79 6.73717L30.7917 6.54615L30.8817 6.65162C29.0572 4.9876 22.3202 6.86355 21.9725 6.63811C22.479 6.43987 23.2843 6.3091 23.7402 6.08864C24.9076 5.52408 26.0486 4.91447 27.2212 4.34469C24.6208 4.47539 22.541 5.13694 20.3213 6.55312L20.1293 6.53086C20.0699 6.24614 20.2415 5.93287 20.36 5.67298C21.027 4.21108 22.742 3.47497 24.1875 3.18524L24.3721 3.14917Z" fill="#717171"/>
<path d="M21.3076 19.8721C27.6703 20.9163 35.4273 23.2562 40.1492 27.8047C36.6847 26.3485 35.369 26.699 31.7832 27.7376L31.3116 27.4641C31.6571 27.2395 32.3563 26.8101 32.6538 26.5763C31.1646 26.858 29.6298 27.3645 28.4096 28.2952L28.4329 27.9447C30.9278 25.6997 32.6837 25.5928 35.8102 25.7234C33.8303 24.906 32.3872 24.5489 30.3029 24.0354C26.6325 23.1312 23.8372 22.9488 21.3076 19.8721Z" fill="#717171"/>
<path d="M27.2852 9.83423C28.1676 10.4975 29.4572 12.9207 30.7982 13.5248C30.8236 13.5363 30.9977 13.7403 31.0258 13.7756C29.2649 14.3281 27.6579 11.2205 27.2852 9.83423Z" fill="#717171"/>
<path d="M29.1025 29.018C29.7939 28.4108 30.454 27.8214 31.312 27.4641L31.7836 27.7376C30.9516 27.988 29.8938 28.5976 29.1025 29.018Z" fill="#717171"/>
<path d="M44.1556 12.5957C44.1616 12.6424 44.1655 12.6893 44.1676 12.7364C44.2034 13.5415 43.6441 14.3707 43.1167 14.9404C42.9886 14.5183 43.9047 13.0496 44.1556 12.5957Z" fill="#717171"/>
<path d="M27.3672 29.1379C27.7495 28.6633 28.0016 28.3757 28.4334 27.9448L28.4101 28.2953C28.2584 28.5258 27.6224 28.9519 27.3672 29.1379Z" fill="#717171"/>
<path d="M56.1325 0.0300159C58.2252 0.0185022 59.7801 -0.0802588 61.9101 0.4217C68.6442 2.00871 71.7662 9.64763 67.7309 15.3286C66.8275 16.6004 65.866 17.1853 64.5193 17.9626C73.2741 20.2898 74.5484 31.8764 68.3931 37.4605C66.8053 38.9009 65.1294 39.4938 63.1353 40.11C60.0323 40.9022 55.9175 40.7238 52.6508 40.7208C49.1678 40.7238 45.6849 40.7029 42.2021 40.658C43.1171 40.3696 44.3073 40.2124 45.2477 39.974C52.297 38.1864 56.1216 32.0283 56.1138 24.9648C56.1112 22.5578 56.1266 19.9674 56.1249 17.4911L56.1325 0.0300159Z" fill="#404040"/>
<path d="M105.178 9.19303L109.565 9.18408C109.569 10.9462 109.479 13.1735 109.568 14.8733L109.685 14.951C112.452 11.901 118.384 14.4062 118.998 18.1808C119.045 18.4715 119.291 19.6116 119.411 19.7894C119.886 19.6244 119.901 18.1764 120.108 17.6542C121.138 15.0514 123.813 13.2101 126.658 13.6657C127.805 13.8498 128.488 14.3442 129.448 14.9297C129.779 14.8108 129.342 14.5586 129.644 13.9928C130.717 13.878 132.72 13.9521 133.909 13.9373V23.1065C133.909 23.7548 133.964 26.4482 133.888 26.9377L133.695 27.0389L129.513 27.0681C129.509 26.7652 129.557 26.2428 129.576 25.9231C126.51 28.8913 121.404 27.1246 120.11 23.2766C119.82 22.414 119.673 21.2802 119.515 20.3751C119.294 21.1996 119.227 22.0167 118.96 22.9105C117.955 26.2899 114.675 28.2087 111.272 27.0962C110.781 26.9355 110.291 26.3955 109.69 26.1999L109.558 26.3342L109.572 27.0483C108.109 27.0378 106.646 27.048 105.184 27.0788C105.076 25.5503 105.158 22.7037 105.158 21.1008L105.178 9.19303ZM127.325 23.3689C128.362 23.1787 129.214 22.4418 129.552 21.4439C129.888 20.446 129.657 19.3438 128.948 18.5645C128.24 17.7852 127.164 17.4514 126.138 17.6923C124.604 18.0524 123.639 19.5689 123.961 21.1097C124.282 22.6504 125.776 23.6529 127.325 23.3689ZM112.991 23.4048C113.747 23.1315 114.362 22.5644 114.695 21.832C115.046 21.0594 115.059 20.1401 114.757 19.35C114.479 18.6236 113.921 18.0392 113.208 17.7281C112.649 17.4877 112.147 17.5362 111.557 17.5814C109.79 18.3712 108.887 19.9913 109.731 21.8596C110.031 22.5348 110.591 23.0607 111.283 23.3182C111.836 23.5237 112.417 23.4942 112.991 23.4048Z" fill="#404040"/>
<path d="M163.67 9.19312L168.107 9.19942C168.14 11.15 168.111 13.1675 168.109 15.1232C168.747 14.2743 169.868 13.7743 170.906 13.6475C172.482 13.4644 174.067 13.9176 175.306 14.9065C178.57 17.4611 178.518 22.384 176.055 25.5006C176.021 25.5371 175.985 25.573 175.948 25.6083C174.343 27.1714 171.943 27.913 169.784 27.0157C169.315 26.8202 168.43 26.1976 168.108 26.1933C168.079 26.5905 168.135 26.6926 167.938 26.9898C167.139 27.0802 164.624 27.0165 163.667 27.0272L163.67 9.19312ZM171.593 23.377C172.372 23.0506 173.004 22.4644 173.323 21.6733C173.623 20.9057 173.608 20.0507 173.279 19.2944C172.613 17.7445 171.431 17.4318 169.913 17.5894C168.165 18.4129 167.408 20.171 168.272 21.9545C168.583 22.6088 169.144 23.1111 169.828 23.3488C170.394 23.5419 171.017 23.5121 171.593 23.377Z" fill="#717171"/>
<path d="M184.092 13.6235C187.898 13.0337 191.462 15.6416 192.049 19.4464C192.635 23.2512 190.022 26.8103 186.215 27.3928C182.412 27.9746 178.856 25.3676 178.271 21.5679C177.685 17.7681 180.29 14.2125 184.092 13.6235ZM185.81 23.42C186.576 23.1375 187.176 22.5588 187.518 21.8192C187.872 21.0434 187.901 20.1589 187.599 19.3618C187.329 18.6453 186.789 18.0639 186.092 17.7441C185.545 17.4973 185.1 17.5318 184.513 17.5836C183.657 17.9467 183.058 18.4394 182.7 19.322C182.389 20.1127 182.401 20.9939 182.732 21.7762C183.028 22.4729 183.591 23.0227 184.294 23.3032C184.8 23.5003 185.279 23.455 185.81 23.42Z" fill="#717171"/>
<path d="M155.064 13.698C158.664 13.2984 161.887 15.0041 162.551 18.7884C162.76 19.9755 162.676 21.0341 162.601 22.2246C159.73 22.1654 156.7 22.2269 153.822 22.2573C155.438 24.4333 157.772 24.0262 159.922 22.9834L160.862 23.9771C161.162 24.2817 161.43 24.5202 161.603 24.9155C161.513 26.1229 159.219 26.9547 158.183 27.1957C148.741 29.3913 145.851 15.561 155.064 13.698ZM154.632 17.7505C154.224 18.2636 153.961 18.6281 153.604 19.179C154.668 19.1767 155.985 19.1404 157.027 19.1832C157.45 19.2019 158.068 19.2841 158.416 19.0832C158.615 18.7888 158.581 18.9199 158.542 18.5503C157.945 17.5821 156.898 17.2782 155.824 17.3379C155.454 17.4598 154.982 17.6011 154.632 17.7505Z" fill="#717171"/>
<path d="M142.651 13.6826C146.829 13.363 148.393 15.7544 148.388 19.5506C148.384 22.0385 148.381 24.5624 148.371 27.0526C146.937 27.0373 145.504 27.0383 144.071 27.0553C144.066 24.9597 145.031 14.4738 140.409 18.2907C139.554 19.5937 139.872 25.2103 139.879 27.0626C138.486 27.0065 136.853 27.0518 135.442 27.0588C135.342 22.9073 135.394 18.1414 135.456 13.9777C136.93 13.9492 138.406 13.9382 139.88 13.9445C139.869 14.2705 139.808 14.7772 139.965 15.0375C140.838 14.7372 140.713 14.0305 142.651 13.6826Z" fill="#404040"/>
<path d="M88.5822 13.9685L93.0551 13.9322L93.0022 22.4289L93.002 27.0472C91.5573 27.0232 90.0406 27.0506 88.59 27.0544C88.5951 26.6965 88.6209 26.2489 88.5407 25.9095C87.2475 26.8603 86.5692 27.3734 84.8727 27.4394C82.8171 27.572 80.6166 25.589 80.3857 23.521C80.0558 20.5667 80.2192 16.9948 80.235 13.9786L83.908 13.9411C84.1352 13.9243 84.4612 13.8407 84.5497 14.1457C85.1516 16.2206 83.1803 23.4221 86.5772 23.4307C87.0506 23.4296 87.5037 23.2385 87.8348 22.9003C88.9738 21.759 88.5826 15.9754 88.5822 13.9685Z" fill="#404040"/>
<path d="M201.014 10.6148C202.29 10.5841 203.54 10.6621 204.832 10.6117L204.85 13.9505L207.591 13.9176L207.623 17.4327L204.847 17.4316C204.863 18.8866 204.694 20.4461 204.825 21.8718C204.982 23.5886 206.495 23.4102 207.682 23.2244C207.726 24.1798 207.838 25.7407 207.558 26.6063C206.142 27.5773 202.739 27.3707 201.611 26.0675C199.99 24.1939 200.529 19.8309 200.553 17.4385L198.602 17.4349C198.54 16.3357 198.565 15.0415 198.562 13.9256L200.55 13.9048C200.526 13.2147 200.382 11.1912 200.692 10.676L201.014 10.6148Z" fill="#717171"/>
<path d="M193.154 9.19019L197.571 9.19569C197.451 14.9919 197.518 21.2237 197.587 27.0343C196.562 26.97 194.157 26.9658 193.159 27.0385C193.094 21.1511 193.127 15.0778 193.154 9.19019Z" fill="#717171"/>
<path d="M102.155 13.6891C102.746 13.6256 103.405 13.6605 104.003 13.6753C104.04 15.066 104.008 16.5389 103.999 17.9366C98.141 17.3989 98.96 23.0028 99.1162 27.0685C97.7255 27.0069 96.1651 27.1437 94.7901 27.0208C94.648 26.7871 94.6838 26.2804 94.6834 25.9838L94.6895 13.9624L99.0889 13.9369C99.0818 15.0279 99.0686 16.1187 99.0493 17.2094C99.6469 15.4303 100.146 14.2064 102.155 13.6891Z" fill="#404040"/>
<path d="M216.105 10.8904C216.495 10.0529 217.318 7.90449 217.825 7.19405C217.907 7.07983 218.592 7.14015 218.811 7.18144C218.959 7.72685 218.9 11.9714 218.735 12.2646C218.344 12.3734 218.484 12.365 218.085 12.2216C217.775 11.7635 217.898 11.2537 217.9 10.6018L217.91 8.95482C217.489 9.70838 216.775 12.2502 215.915 12.1699C215.307 11.7069 214.657 9.56732 214.367 8.76423C214.332 9.60929 214.493 11.5269 214.174 12.18C213.961 12.3248 213.722 12.2712 213.463 12.2478C213.191 11.8838 213.321 7.83327 213.329 7.11034C214.026 7.07811 214.409 7.06011 214.75 7.73602C215.258 8.74336 215.64 9.85023 216.105 10.8904Z" fill="#404040"/>
<path d="M168.553 32.1301C169.473 32.1645 170.279 32.1096 171.107 32.5909C172.353 33.315 172.087 34.7036 171.441 35.7774C170.479 36.4394 169.663 36.3791 168.557 36.3842L168.553 32.1301ZM170.715 35.4228C171.636 33.9098 171.137 32.8924 169.356 32.8305C169.353 33.511 169.239 34.8705 169.425 35.4253C169.816 35.7801 170.252 35.6522 170.715 35.4228Z" fill="#404040"/>
<path d="M204.509 32.1604C205.677 32.1778 206.408 32.0852 207.38 32.8579C208.329 33.6118 208.06 34.9547 207.34 35.7598C206.439 36.47 205.594 36.3741 204.499 36.3722L204.509 32.1604ZM205.231 35.6565C205.776 35.6235 206.175 35.6142 206.709 35.4704C207.473 33.7041 207.138 32.9414 205.228 32.813L205.231 35.6565Z" fill="#404040"/>
<path d="M159.86 35.0895C160.034 34.4082 160.412 32.4408 161.011 32.2051C161.522 32.5213 161.934 34.1813 162.283 34.922C162.42 34.0947 162.654 32.4932 163.463 32.0393L163.618 32.1742C163.742 32.6362 163.542 33.1221 163.401 33.5837C163.207 34.2916 162.887 35.9561 162.183 36.2416C161.644 35.9809 161.245 34.1308 161.005 33.4496C160.69 34.2566 160.446 36.0582 159.867 36.4095L159.663 36.3041C159.1 35.5935 158.448 33.0808 158.265 32.1262L158.89 32.212C159.41 32.5695 159.673 34.3689 159.86 35.0895Z" fill="#404040"/>
<path d="M186.931 32.1355C187.795 32.1654 189.981 32.1197 189.925 33.5929C189.904 34.1388 189.515 34.6734 189.09 35.0144C189.421 35.4097 189.988 35.8674 189.771 36.3625L189.304 36.499C189.053 36.1526 188.779 35.7826 188.573 35.4093C188.312 34.9322 188.355 34.992 187.864 35.0215C187.431 35.5014 188.006 35.7544 187.59 36.3786C187.254 36.455 187.387 36.4649 187.041 36.2879C186.822 35.9787 186.927 32.7575 186.931 32.1355ZM188.882 34.2158C189.001 33.7872 189.049 33.6621 188.946 33.233C188.526 32.8006 188.371 32.8534 187.728 32.8427C187.71 33.2751 187.628 33.9631 187.829 34.3158C188.182 34.499 188.535 34.4112 188.882 34.2158Z" fill="#404040"/>
<path d="M195.119 32.1379C196.059 32.1647 197.042 32.0875 197.793 32.7523C198.641 33.5027 197.925 34.9125 196.842 34.9622L196.003 35.026C195.722 35.4738 196.089 35.932 195.802 36.3761C195.517 36.4348 195.465 36.4298 195.208 36.2937C195.023 36.0348 195.116 32.6727 195.119 32.1379ZM197.073 34.1762C197.244 33.79 197.279 33.707 197.195 33.295C196.889 32.7725 196.458 32.8204 195.911 32.818C195.895 33.2437 195.81 33.9197 196.021 34.2583C196.383 34.4145 196.71 34.3313 197.073 34.1762Z" fill="#404040"/>
<path d="M212.835 7.10767C212.851 7.43324 212.859 7.52521 212.774 7.85078C212.375 8.06294 212.135 7.96626 211.637 7.93782L211.636 10.9611C211.632 11.4033 211.71 11.8966 211.5 12.2126C211.182 12.2645 211.058 12.2943 210.733 12.2425C210.432 11.6096 210.775 9.12612 210.653 8.12544C210.329 7.7923 209.834 8.11901 209.478 7.85457L209.381 7.1314C210.51 7.10308 211.701 7.11455 212.835 7.10767Z" fill="#404040"/>
<path d="M181.602 35.3065C181.774 34.6217 182.363 32.6761 182.806 32.2148C183.059 32.1781 183.211 32.1419 183.466 32.1999C183.537 32.5468 183.266 33.0012 183.108 33.3411C182.697 34.2809 182.581 35.5278 181.866 36.1799C181 36.4287 180.72 35.366 180.478 34.7025C180.188 33.9111 179.917 33.0849 179.664 32.2807L180.061 32.0317C180.664 32.1941 181.349 34.5985 181.602 35.3065Z" fill="#404040"/>
<path d="M172.42 32.137C172.941 32.1831 174.032 32.1867 174.546 32.1488C174.733 32.4271 174.677 32.3774 174.67 32.7605C174.309 33.0923 173.776 32.663 173.245 32.9307C173.085 33.3326 173.071 33.2172 173.134 33.6212C173.534 34.0742 174.288 33.7311 174.572 34.24L174.413 34.559C173.882 34.9021 173.616 34.3269 173.094 34.9316C173.126 35.1529 173.186 35.3616 173.242 35.5775C173.656 35.7586 173.99 35.6466 174.456 35.5843C174.735 35.8155 174.663 35.8243 174.762 36.2437C174.544 36.4489 172.892 36.381 172.442 36.3845C172.393 34.9564 172.409 33.5655 172.42 32.137Z" fill="#404040"/>
<path d="M164.225 32.1492C164.902 32.151 166.138 31.9458 166.481 32.5166C166.279 33.3572 165.587 32.5375 165.036 32.9135C164.978 33.2299 165.025 33.3876 165.086 33.6972C165.41 34.0258 165.426 33.8404 166.032 33.9197C166.265 34.204 166.201 34.1389 166.264 34.5299L166.134 34.6691L165.03 34.654C165.024 34.9521 165.037 35.2588 165.045 35.5574C165.268 35.7189 166.057 35.6348 166.409 35.6282L166.515 35.7873C166.528 36.1232 166.581 36.1138 166.417 36.3689C165.686 36.3673 164.954 36.3723 164.223 36.3841L164.225 32.1492Z" fill="#404040"/>
<path d="M198.555 32.1595C199.178 32.1983 200.43 32.0721 200.773 32.2757C200.892 32.6263 200.902 32.5012 200.787 32.8029C200.161 33.062 199.732 32.557 199.265 32.9907C199.21 33.3534 199.206 33.4252 199.322 33.7732C199.696 34.0312 199.85 33.8964 200.408 33.8829L200.567 34.0554C200.586 34.3538 200.65 34.4663 200.498 34.6673L199.242 34.6544C199.233 35.0258 199.247 35.2213 199.289 35.5907C199.706 35.7978 200.198 35.4968 200.767 35.6527C200.952 35.9502 200.933 35.8276 200.866 36.1443C200.459 36.529 199.245 36.3792 198.574 36.371C198.528 34.9931 198.551 33.5439 198.555 32.1595Z" fill="#404040"/>
<path d="M201.628 32.1399C202.256 32.2297 203.382 32.0533 203.86 32.2456C204.163 33.4135 202.809 32.5985 202.336 32.9112C202.3 33.2983 202.284 33.4018 202.407 33.7694C202.78 34.0453 202.827 33.829 203.444 33.9168C203.682 34.2033 203.617 34.1315 203.677 34.5272C203.46 34.7276 202.733 34.6481 202.354 34.6485C202.305 34.9063 202.323 35.2814 202.326 35.5524C202.775 35.8621 203.303 35.4289 203.88 35.7154C203.964 36.096 203.969 35.946 203.847 36.3273C203.486 36.4112 202.078 36.3743 201.628 36.3715V32.1399Z" fill="#404040"/>
<path d="M192.607 32.2419C193.179 32.1724 194.379 32.28 194.342 33.0453C193.914 33.2271 193.332 32.8669 192.722 32.9996L192.678 33.223C193.296 34.3487 196.268 34.771 193.46 36.3738C192.72 36.3842 192.095 36.0831 191.764 35.411L191.813 35.2736C192.091 35.2078 193.098 35.5026 193.491 35.5713C193.749 35.3645 193.687 35.4716 193.735 35.1391C193.277 34.2672 190.596 33.741 192.607 32.2419Z" fill="#404040"/>
<path d="M183.966 36.3705C183.978 35.2505 183.878 33.3675 184.009 32.3206C184.298 32.1104 184.419 32.1868 184.845 32.186L184.744 32.8291C184.773 34.5708 185.223 33.6771 185.951 33.923C186.077 34.1735 186.073 34.2368 186.052 34.5181C185.629 34.8082 185.542 34.5412 184.893 34.6789C184.688 34.9099 184.65 34.9594 184.617 35.2652C185.084 35.8009 185.933 35.4731 186.379 35.908C186.418 36.2295 186.454 36.129 186.283 36.3553L183.966 36.3705Z" fill="#404040"/>
<path d="M175.491 32.125C175.777 32.1396 175.849 32.1435 176.116 32.2463C176.459 32.7855 176.292 34.8414 176.287 35.6531C176.876 35.6164 177.354 35.4967 177.813 35.8017L177.841 36.2813C177.447 36.4415 175.996 36.3767 175.486 36.3718L175.491 32.125Z" fill="#404040"/>
<path d="M178.422 32.0911C178.713 32.1229 178.799 32.1454 179.075 32.2416C179.245 32.7694 179.144 35.813 179.131 36.5101L178.518 36.334C178.288 35.8854 178.41 32.7834 178.422 32.0911Z" fill="#404040"/>
<path d="M184.845 32.1858C185.283 32.1658 185.886 32.0712 186.216 32.3235L186.314 32.5198C185.902 33.0496 185.379 32.8736 184.744 32.829L184.845 32.1858Z" fill="#404040"/>
</g>
<defs>
<clipPath id="clip0_235_253">
<rect width="218.896" height="40.7399" fill="white"/>
</clipPath>
</defs>
</svg>
