<svg width="320" height="30" viewBox="0 0 320 30" fill="none" xmlns="http://www.w3.org/2000/svg">
<g clip-path="url(#clip0_235_237)">
<path fill-rule="evenodd" clip-rule="evenodd" d="M211.141 0.454834C216.547 0.473594 221.987 0.541029 227.39 0.725081C231.57 0.867556 235.254 2.73748 234.499 7.53955C234.051 10.3835 232.561 11.5071 230.464 13.09L230.264 13.2406C235.695 17.8916 233.733 22.575 229.017 26.5861C223.833 29.8007 211.187 29.4133 205.179 28.7506C205.422 25.7257 206.767 20.0449 207.482 16.838C207.856 15.1541 208.221 13.3957 208.591 11.6145C208.983 9.72536 209.381 7.81081 209.8 5.93227C210.22 4.04967 210.662 2.20307 211.141 0.454834ZM218.122 17.1417C217.481 17.1802 216.863 17.2172 216.301 17.2228C216.048 18.0538 215.888 18.7099 215.772 19.3386C215.725 19.5932 215.686 19.8431 215.651 20.0987C215.558 20.7862 215.496 21.5123 215.407 22.4675L216.103 22.4427C218.491 22.3585 221.079 22.2682 223.301 21.5158C224.716 20.4252 224.962 19.3868 224.083 17.8028C222.631 16.8724 220.249 17.0144 218.122 17.1417ZM219.374 7.28655C221.74 7.19934 223.319 7.37325 225.625 7.80777C225.522 8.29706 225.412 8.78533 225.297 9.27258C224.935 10.8069 224.913 11.0614 223.712 11.8087C222.347 11.9299 220.619 11.9527 219.039 11.9735C218.466 11.9811 217.914 11.9882 217.405 11.9999C217.664 11.283 217.812 10.5635 217.956 9.86783C218.13 9.02464 218.297 8.21644 218.643 7.49037L219.374 7.28655Z" fill="#717171"/>
<path fill-rule="evenodd" clip-rule="evenodd" d="M273.035 0.654444C271.472 0.672697 270.246 0.686893 269.587 0.681823C267.947 6.79355 264.154 22.9668 263.743 28.9639C267.692 28.8544 271.668 28.8955 275.655 28.937C279.723 28.9791 283.803 29.0212 287.88 28.9036C288.026 26.5505 288.519 24.0427 288.917 21.7033C288.534 21.6977 287.947 21.6931 287.223 21.6875C283.415 21.6586 275.836 21.6013 274.476 21.1998C274.215 20.385 274.301 19.9799 274.454 19.2518C274.483 19.1134 274.514 18.9633 274.546 18.797C275.477 18.1363 280.939 18.1931 284.75 18.2321C286.158 18.2468 287.34 18.259 287.986 18.2321C288.158 17.4848 288.334 16.7384 288.513 15.9926C288.808 14.7615 289.112 13.532 289.425 12.305C288.703 11.3279 280.774 11.662 277.333 11.8071C276.745 11.8319 276.289 11.8512 276.021 11.8573L276.587 7.76806C281.303 7.86795 286.867 8.05251 291.518 7.76806C292.058 6.67694 292.242 5.77392 292.431 4.85062C292.641 3.82084 292.856 2.76571 293.575 1.39572C292.32 0.42983 279.655 0.577375 273.035 0.654444Z" fill="#717171"/>
<path fill-rule="evenodd" clip-rule="evenodd" d="M259.997 0.671492C253.732 0.735885 247.048 0.804841 241.134 0.556396L240.566 2.90952C238.746 10.4343 235.777 22.7095 235.056 28.804C239.135 29.1701 244.684 29.1067 250.032 29.0459C253.385 29.0073 256.66 28.9698 259.445 29.0398C259.767 26.5204 260.123 24.005 260.51 21.4937C257.155 21.6995 253.044 21.627 249.284 21.5606C248.096 21.5398 246.944 21.5195 245.861 21.5089C245.851 21.34 245.835 21.16 245.818 20.9745C245.741 20.1069 245.652 19.1116 246.038 18.4895C247.967 18.1077 251.047 18.1493 254.023 18.1899C256.211 18.2193 258.343 18.2482 259.919 18.1072L261.039 11.7501C256.762 11.5954 252.128 11.7415 247.824 11.8008L248.125 8.16792L248.654 8.15017L250.044 8.10099C254.19 7.95142 261.169 7.69892 263.622 8.06398C263.865 5.577 264.178 3.09763 264.562 0.628902C263.078 0.639549 261.55 0.655267 259.997 0.671492Z" fill="#717171"/>
<path d="M126.024 0.725342C133.538 0.986056 142.344 0.775841 149.962 0.789531C149.55 3.42497 149.121 5.4757 148.321 8.02656C146.013 8.022 134.58 7.5818 133.391 8.46921C133.213 9.69459 133.128 10.0414 133.315 11.2531C134.553 11.6212 144.327 11.5412 146.44 11.5543C145.817 14.0455 145.383 15.618 145.169 18.2069C140.513 18.2805 135.682 18.0329 131.051 18.3252C130.873 19.2233 130.404 20.8128 131.055 21.4988C133.516 21.7991 143.189 21.7769 145.739 21.5034C145.374 23.9006 145.04 26.3027 144.737 28.7091C140.288 29.2153 124.57 29.0054 119.763 28.8098C122.037 20.7088 124.292 9.04721 126.024 0.725342Z" fill="#404040"/>
<path fill-rule="evenodd" clip-rule="evenodd" d="M308.944 20.2071C308.376 23.514 301.865 25.7404 300.496 19.6808C299.996 19.6433 299.525 19.6048 299.076 19.5683C296.305 19.3422 294.35 19.1824 291.3 19.7599C291.555 22.1922 291.747 23.1819 292.395 25.5416C295.163 28.387 298.412 29.7925 302.41 29.8721C306.781 29.9588 311.433 28.5823 314.658 25.537C317.712 22.6551 319.875 17.056 316.157 13.8125C314.977 12.7817 312.653 11.9152 311.101 11.6632C310.863 11.5958 310.586 11.5238 310.282 11.4452C307.947 10.8398 304.045 9.82775 304.15 7.40871C305.358 5.98041 306.694 6.18576 308.361 6.4413L308.461 6.45651C309.765 6.65527 310.263 7.51722 310.851 8.53584C310.974 8.74778 311.1 8.96631 311.238 9.18737L314.968 9.39424L319.595 8.83093C319.139 6.21719 318.701 3.48228 316.252 1.88209C310.849 -1.64632 300.585 -0.0988707 297.004 5.56059C291.575 14.1365 298.773 16.3269 304.162 17.9671C306.452 18.6637 308.416 19.2615 308.944 20.2071Z" fill="#717171"/>
<path fill-rule="evenodd" clip-rule="evenodd" d="M69.2164 0.747284C68.5669 0.776184 67.9986 0.801536 67.5351 0.816747C66.5201 6.00264 65.3909 11.148 64.2623 16.2913C63.3385 20.5027 62.4146 24.7125 61.5537 28.9427C64.3672 28.9371 67.9037 29.0203 70.66 28.8717C70.8019 28.1218 70.953 27.3486 71.1056 26.5657C71.494 24.5772 71.8951 22.5252 72.1876 20.6269L77.4521 20.5346C80.87 20.3541 82.2476 20.0981 84.9673 18.6672C90.1613 15.9343 94.3575 7.25044 88.9931 2.81799C85.6077 0.0217246 74.6072 0.508473 69.2164 0.747284ZM76.1698 7.96687C78.4424 7.8462 81.089 7.70575 82.4743 9.37844C82.7298 10.9036 82.1396 11.7645 81.3334 12.9403L81.1103 13.2669C78.9327 13.7866 76.1369 13.6603 73.871 13.6137C73.9137 13.435 73.9551 13.2541 73.9957 13.0716C74.0698 12.7389 74.1412 12.4005 74.2097 12.0586C74.212 12.0468 74.2139 12.0349 74.2163 12.0231C74.2296 11.9561 74.2431 11.889 74.2563 11.8218C74.2587 11.8097 74.261 11.7975 74.2634 11.7853C74.2639 11.7828 74.2665 11.7701 74.267 11.7676C74.2743 11.7301 74.282 11.6926 74.2893 11.655C74.2917 11.6424 74.2939 11.6296 74.2964 11.617C74.2989 11.6041 74.3015 11.5913 74.304 11.5784C74.3052 11.5722 74.3063 11.5649 74.3075 11.5587C74.3093 11.5497 74.3109 11.5407 74.3126 11.5318C74.3192 11.4975 74.3258 11.4632 74.3324 11.4289C74.3434 11.3713 74.3545 11.3137 74.3653 11.256C74.3696 11.2335 74.3733 11.211 74.3775 11.1885C74.3819 11.165 74.3868 11.1416 74.3912 11.1181C74.3923 11.1123 74.3932 11.1066 74.3942 11.1008C74.4152 10.9877 74.4359 10.8744 74.4566 10.7611C74.4666 10.7062 74.4765 10.6513 74.4865 10.5963C74.4902 10.576 74.494 10.5558 74.4977 10.5355C74.5003 10.5208 74.5031 10.5061 74.5058 10.4914C74.5689 10.1419 74.6308 9.79262 74.6919 9.44588C74.7027 9.38411 74.7135 9.32241 74.7243 9.26081L74.7912 8.88054L74.9444 8.02062C75.3327 8.01149 75.745 7.98969 76.1698 7.96687Z" fill="#404040"/>
<path d="M190.489 0.233119C193.595 -0.00903833 198.298 0.0229162 200.674 2.29481C202.879 4.40669 202.852 6.37771 203.059 9.15248C200.224 9.35753 197.717 9.27629 194.879 9.21483C192.436 5.06713 190.093 5.67132 186.978 8.54739C191.067 11.2747 195.484 11.0642 199.478 13.8094C203.467 16.5526 201.933 21.264 199.475 24.4294C196.692 28.0109 192.563 29.0553 188.268 29.5968C182.287 30.0833 173.714 27.9647 175.387 20.097C176.647 18.9915 182.19 19.536 184.228 19.6033C184.319 20.3702 184.38 21.6068 184.928 22.1432C185.755 22.9451 186.859 23.4005 188.009 23.4163C189.874 23.4507 192.448 22.4772 192.366 20.2762C189.436 16.5352 175.187 17.5641 179.287 7.90609C181.472 2.76451 185.378 1.07641 190.489 0.233119Z" fill="#404040"/>
<path d="M163.72 0.23338C167.286 0.071536 171.037 0.00398645 173.963 2.42921C175.509 3.7124 176.878 7.54768 175.36 9.10345C173.614 9.53878 169.96 9.34894 168.019 9.32156C166.118 6.26722 162.936 4.59586 160.52 8.24464L160.724 8.84728C165.199 12.7893 172.132 9.84147 174.995 17.477C173.976 26.1932 168.749 28.5719 160.824 29.7148C154.53 29.9235 147.07 27.877 148.445 19.8986C149.65 19.2308 155.428 19.4541 157.009 19.8162C160.335 27.1235 165.549 22.395 165.153 20.2506C161.825 16.5008 154.221 18.4311 151.579 11.5624C152.812 4.20615 156.45 1.27928 163.72 0.23338Z" fill="#404040"/>
<path d="M55.1836 0.689697C58.4469 0.744152 61.7568 0.730152 65.0244 0.743841C60.8864 5.12488 56.8054 9.55917 52.7818 14.0458C53.8806 16.4424 59.0505 26.7459 59.372 28.6184C58.6282 29.1785 58.6246 28.9771 57.4536 28.992L49.0086 28.9506C47.8781 26.2467 46.8136 23.3637 45.6822 20.6108C43.553 23.6323 41.5683 26.2902 38.8921 28.8639C35.7571 29.1027 31.8181 28.9664 28.6074 28.933C33.0332 24.0265 37.9146 18.8795 42.4228 13.9962C40.3609 9.62122 38.1018 5.19911 36.0005 0.807121C39.538 0.683305 43.0791 0.71465 46.6135 0.901743C47.4221 3.96856 48.0101 5.48752 49.4548 8.30671C51.2467 5.52494 52.8493 3.06229 55.1836 0.689697Z" fill="#404040"/>
<path d="M26.1156 0.752286C27.7827 0.633946 29.5241 0.748631 31.2006 0.819818C33.3992 4.65965 35.9321 10.0966 37.8538 14.1187C35.498 16.6489 25.6991 28.0254 23.5386 29.0631C21.9198 28.9986 19.7769 29.2857 18.3252 28.9493C19.4888 26.3263 29.6868 15.9568 32.3125 13.1783C30.7987 10.573 27.1484 3.43427 26.1156 0.752286Z" fill="#404040"/>
<path d="M17.1488 0.684756C18.6818 0.667111 20.3599 0.735266 21.9053 0.767513C23.8203 3.76254 27.3088 10.8575 28.6291 14.0837C26.5942 16.529 16.6734 27.6908 14.6725 28.9518C13.4925 29.0217 9.83271 29.4647 9.17773 28.6268C9.65171 27.4498 21.4587 15.0055 23.1693 13.2301C21.2737 9.47483 18.593 4.5036 17.1488 0.684756Z" fill="#404040"/>
<path d="M7.93886 0.788934L12.5496 0.651123C14.4223 3.43989 17.9805 10.7371 19.386 13.9333C17.9114 16.0232 6.96293 28.268 5.30434 29.0325C3.45591 29.0161 1.87307 29.1949 0 28.9747C0.0678405 27.5975 11.8298 15.4385 13.9122 13.1164C11.9253 9.33561 9.40488 4.7395 7.93886 0.788934Z" fill="#404040"/>
<path d="M104.006 0.735255C101.328 0.768719 98.6694 0.802183 96.0648 0.719537C94.1893 9.55909 92.1875 20.2371 89.8105 28.8135C92.6661 28.9489 96.2067 29.0736 99.0689 28.8389L100.919 19.3377C109.405 18.9533 109.263 19.938 108.211 27.2559L108.049 28.3871C109.107 29.175 113.555 29.0483 115.964 28.9793C116.373 28.9677 116.724 28.9575 116.989 28.954C117.208 25.8099 117.853 22.4224 117.657 19.3011C117.636 18.9761 117.349 18.4133 116.986 17.813C116.489 16.9911 115.85 16.0988 115.56 15.648L115.641 15.5902C118.79 13.3375 120.369 12.2088 120.982 8.15664C122.096 0.789507 114.19 0.729678 109.286 0.700777C107.524 0.690637 105.761 0.712946 104.006 0.735255ZM104.799 7.57356C107.068 7.59638 111.006 7.28303 111.742 10.0103C111.24 11.5406 110.316 12.0628 108.913 12.7879C106.909 13.2376 104.799 13.2021 102.74 13.2498C103.057 11.3301 102.624 9.35628 103.676 7.76522L104.799 7.57356Z" fill="#404040"/>
</g>
<defs>
<clipPath id="clip0_235_237">
<rect width="319.595" height="29.8759" fill="white"/>
</clipPath>
</defs>
</svg>
